<svg width="128" height="128" viewBox="0 0 128 128" fill="none" xmlns="http://www.w3.org/2000/svg">
<path d="M98 0H30C13.4315 0 0 13.4315 0 30V98C0 114.569 13.4315 128 30 128H98C114.569 128 128 114.569 128 98V30C128 13.4315 114.569 0 98 0Z" fill="#00979C"/>
<path fill-rule="evenodd" clip-rule="evenodd" d="M9.5 68.256V60.0475C9.672 59.962 9.672 59.791 9.672 59.62C12.2535 48.419 19.31 41.664 30.497 39.013C31.4435 38.7565 32.476 38.842 33.423 38.5H38.93C39.016 38.671 39.2745 38.5855 39.4465 38.5855C44.954 39.184 49.945 41.1505 54.3335 44.571C58.12 47.3925 61.046 50.984 63.7135 54.8315C64.0575 55.3445 64.23 55.3445 64.574 54.8315C66.123 52.6085 67.758 50.471 69.651 48.5045C74.212 43.6305 79.7195 40.21 86.4315 39.013C87.378 38.7565 88.4965 38.842 89.4435 38.5H94.7785C94.8645 38.671 95.037 38.5855 95.209 38.5855C96.844 38.7565 98.393 39.0985 99.942 39.526C111.473 42.861 119.648 53.378 118.96 65.2635C118.443 75.268 113.366 82.4505 104.503 86.982C100.114 89.3765 95.295 89.975 90.304 89.8895C83.764 89.804 78.0845 87.5805 73.1795 83.3055C69.737 80.3125 67.0695 76.7215 64.574 72.959C64.23 72.446 64.0575 72.5315 63.7135 73.0445C62.1645 75.3535 60.5295 77.662 58.6365 79.885C55.2805 83.6475 51.408 86.7255 46.589 88.3505C40.651 90.4025 34.6275 90.488 28.604 88.8635C19.9125 86.3835 13.975 80.911 10.705 72.5315C10.1885 71.1635 9.93 69.6245 9.5 68.256ZM36.865 80.8255C41.77 80.9965 45.9865 79.372 49.6005 76.0375C53.301 72.617 55.9685 68.3415 58.6365 64.152C58.7225 63.8955 58.7225 63.7245 58.5505 63.468C56.313 59.962 53.9895 56.4565 50.8915 53.549C44.954 47.9055 37.9835 46.0245 30.153 48.504C23.699 50.642 19.568 55.1735 18.6215 62.014C17.675 68.427 20.1705 73.5575 25.3335 77.4055C28.776 79.885 32.6485 80.911 36.865 80.8255ZM91.4225 80.8255C93.3155 80.8255 95.209 80.74 97.016 80.227C103.814 78.175 108.289 73.985 109.58 66.9735C110.87 60.0475 108.203 54.4895 102.352 50.5565C95.8975 46.11 86.5175 46.5375 79.9775 51.4115C75.589 54.6605 72.663 59.0215 69.737 63.5535C69.565 63.81 69.651 63.981 69.737 64.2375C72.0605 67.914 74.384 71.591 77.396 74.7545C81.182 78.7735 85.743 81.082 91.4225 80.8255Z" fill="white"/>
<path fill-rule="evenodd" clip-rule="evenodd" d="M36.779 61.4154C39.5325 61.4154 42.3725 61.5009 45.126 61.4154C45.8145 61.4154 45.9005 61.5864 45.9005 62.2704C45.8144 63.0376 45.8144 63.8121 45.9005 64.5794C45.9865 65.2634 45.8145 65.4344 45.04 65.4344H34.025C32.132 65.4344 30.239 65.3489 28.3455 65.4344C27.743 65.4344 27.571 65.2634 27.571 64.5794C27.657 63.8099 27.657 63.0404 27.571 62.1849C27.571 61.5864 27.743 61.4154 28.346 61.4154C31.0995 61.5009 33.939 61.4154 36.779 61.4154ZM90.9925 55.9429C91.6805 55.9429 92.369 56.0284 92.9715 55.9429C93.402 55.9429 93.574 56.1139 93.574 56.5414C93.488 57.7389 93.574 58.9359 93.488 60.1329C93.488 60.7314 93.66 60.9024 94.2625 60.9024C95.381 60.8169 96.586 60.9024 97.7905 60.8169C98.307 60.8169 98.479 60.9024 98.479 61.5009V65.4344C98.479 65.8619 98.307 66.0329 97.8765 66.0329C96.6721 65.9474 95.467 66.0329 94.1765 65.9474C93.66 65.9474 93.488 66.1184 93.488 66.6314C93.574 67.8284 93.488 69.0254 93.574 70.2229C93.574 70.7359 93.402 70.9924 92.8855 70.9924C91.5961 70.9068 90.3025 70.9068 89.013 70.9924C88.497 70.9924 88.3245 70.8214 88.3245 70.3084C88.4105 69.0254 88.3245 67.8284 88.4105 66.5459C88.4105 66.1184 88.2385 65.9474 87.8085 65.9474C86.6035 66.0329 85.399 65.9474 84.194 66.0329C83.5055 66.0329 83.4195 65.7764 83.4195 65.2634C83.4195 64.0664 83.5055 62.8689 83.4195 61.6719C83.3335 60.9879 83.678 60.8169 84.28 60.8169C85.485 60.9024 86.6035 60.8169 87.8085 60.9024C88.2385 60.9024 88.4105 60.7314 88.4105 60.3039C88.3245 59.1069 88.4105 57.8244 88.3245 56.6274C88.3245 56.1139 88.497 55.9429 89.013 55.9429C89.7015 56.0284 90.304 55.9429 90.9925 55.9429Z" fill="white"/>
</svg>
