<svg width="128" height="128" viewBox="0 0 128 128" fill="none" xmlns="http://www.w3.org/2000/svg">
<path d="M98 0H30C13.4315 0 0 13.4315 0 30V98C0 114.569 13.4315 128 30 128H98C114.569 128 128 114.569 128 98V30C128 13.4315 114.569 0 98 0Z" fill="#0277BD"/>
<path d="M26.8765 51.3255L28.3075 67.2965H64.048V51.3255H26.8765ZM64.0475 19H24L25.452 34.971H64.0475V19ZM64.0475 109.421V92.804L63.9775 92.8225L46.1905 88.02L45.0535 75.282H29.021L31.2585 100.359L63.974 109.441L64.0475 109.421Z" fill="#EBEBEB"/>
<path d="M83.659 67.2965L81.8051 88.0095L63.9926 92.8175V109.433L96.7341 100.359L96.9741 97.6605L100.727 55.6145L101.117 51.3255L104 19H63.9926V34.971H86.4971L85.0441 51.3255H63.9926V67.2965H83.659Z" fill="white"/>
</svg>
