<svg width="128" height="128" viewBox="0 0 128 128" fill="none" xmlns="http://www.w3.org/2000/svg">
<path d="M98 0H30C13.4315 0 0 13.4315 0 30V98C0 114.569 13.4315 128 30 128H98C114.569 128 128 114.569 128 98V30C128 13.4315 114.569 0 98 0Z" fill="#242938"/>
<mask id="mask0_392_187" style="mask-type:luminance" maskUnits="userSpaceOnUse" x="30" y="14" width="68" height="100">
<path d="M30.5 14H97.18V114H30.5V14Z" fill="white"/>
</mask>
<g mask="url(#mask0_392_187)">
<path d="M47.1735 114C56.3735 114 63.84 106.534 63.84 97.3335V80.6665H47.1735C37.9735 80.6665 30.5065 88.1335 30.5065 97.3335C30.5065 106.534 37.9735 114 47.1735 114Z" fill="#0ACF83"/>
<path d="M30.5065 64C30.5065 54.8 37.9735 47.3335 47.1735 47.3335H63.84V80.6665H47.1735C37.9735 80.6665 30.5065 73.2 30.5065 64Z" fill="#A259FF"/>
<path d="M30.5065 30.6665C30.5065 21.4665 37.9735 14 47.1735 14H63.84V47.3335H47.1735C37.9735 47.3335 30.5065 39.8665 30.5065 30.6665Z" fill="#F24E1E"/>
<path d="M63.84 14H80.5065C89.7065 14 97.1735 21.4665 97.1735 30.6665C97.1735 39.8665 89.7065 47.3335 80.5065 47.3335H63.84V14Z" fill="#FF7262"/>
<path d="M97.1735 64C97.1735 73.2 89.7065 80.6665 80.5065 80.6665C71.3065 80.6665 63.84 73.2 63.84 64C63.84 54.8 71.3065 47.3335 80.5065 47.3335C89.7065 47.3335 97.1735 54.8 97.1735 64Z" fill="#1ABCFE"/>
</g>
</svg>
