<svg width="128" height="128" viewBox="0 0 128 128" fill="none" xmlns="http://www.w3.org/2000/svg">
<path d="M47.36 116.8C52.04 118.68 57.12 119.8 62.48 120C69.72 120.24 76.56 118.76 82.72 115.92C75.36 113.04 68.68 108.8 63 103.52C59.2891 109.445 53.8417 114.083 47.4 116.8H47.36Z" fill="#FF9100"/>
<path d="M62.9599 103.52C49.9599 91.52 42.0799 74.12 42.7599 55.04C42.7599 54.44 42.7999 53.8 42.84 53.2C37.0701 51.7278 31.0148 51.7968 25.28 53.4C21.8 59.48 19.72 66.44 19.44 73.92C18.76 93.2 30.44 110.04 47.36 116.84C53.8199 114.152 59.2753 109.508 62.9599 103.56V103.52Z" fill="#FFC400"/>
<path d="M62.96 103.52C66.0783 98.5273 67.8301 92.8029 68.04 86.9202C68.6 70.8402 57.8 57.0402 42.84 53.1602C42.84 53.7602 42.76 54.4002 42.76 55.0002C42.4254 64.0605 44.0579 73.0857 47.545 81.4548C51.0321 89.8238 56.2911 97.338 62.96 103.48V103.52Z" fill="#FF9100"/>
<path d="M66.36 8C57.84 14.8 51.12 23.8 47.04 34.16C44.655 40.2347 43.2378 46.646 42.84 53.16C50.2566 55.0771 56.7967 59.4681 61.379 65.6069C65.9612 71.7456 68.3111 79.2644 68.04 86.92C67.8546 92.8069 66.1009 98.5376 62.96 103.52C68.7082 108.84 75.3951 113.044 82.68 115.92C97.48 109.08 107.96 94.4 108.56 77C108.96 65.72 104.64 55.68 98.52 47.2C92.04 38.24 66.36 8.04 66.36 8.04V8Z" fill="#DD2C00"/>
</svg>
