<svg width="128" height="128" viewBox="0 0 128 128" fill="none" xmlns="http://www.w3.org/2000/svg">
<path d="M41.6 10.6665H86.4C103.467 10.6665 117.333 24.5332 117.333 41.5998V86.3998C117.333 94.6039 114.074 102.472 108.273 108.273C102.472 114.074 94.604 117.333 86.4 117.333H41.6C24.5333 117.333 10.6666 103.467 10.6666 86.3998V41.5998C10.6666 33.3958 13.9257 25.5278 19.7268 19.7267C25.5279 13.9255 33.3959 10.6665 41.6 10.6665ZM40.5333 21.3332C35.4411 21.3332 30.5575 23.356 26.9568 26.9567C23.3561 30.5574 21.3333 35.441 21.3333 40.5332V87.4665C21.3333 98.0798 29.92 106.666 40.5333 106.666H87.4666C92.5588 106.666 97.4424 104.644 101.043 101.043C104.644 97.4423 106.667 92.5587 106.667 87.4665V40.5332C106.667 29.9198 98.08 21.3332 87.4666 21.3332H40.5333ZM92 29.3332C93.7681 29.3332 95.4638 30.0355 96.714 31.2858C97.9642 32.536 98.6666 34.2317 98.6666 35.9998C98.6666 37.7679 97.9642 39.4636 96.714 40.7139C95.4638 41.9641 93.7681 42.6665 92 42.6665C90.2318 42.6665 88.5361 41.9641 87.2859 40.7139C86.0357 39.4636 85.3333 37.7679 85.3333 35.9998C85.3333 34.2317 86.0357 32.536 87.2859 31.2858C88.5361 30.0355 90.2318 29.3332 92 29.3332ZM64 37.3332C71.0724 37.3332 77.8552 40.1427 82.8561 45.1437C87.8571 50.1446 90.6666 56.9274 90.6666 63.9998C90.6666 71.0723 87.8571 77.855 82.8561 82.856C77.8552 87.857 71.0724 90.6665 64 90.6665C56.9275 90.6665 50.1447 87.857 45.1438 82.856C40.1428 77.855 37.3333 71.0723 37.3333 63.9998C37.3333 56.9274 40.1428 50.1446 45.1438 45.1437C50.1447 40.1427 56.9275 37.3332 64 37.3332ZM64 47.9998C59.7565 47.9998 55.6868 49.6855 52.6862 52.6861C49.6857 55.6867 48 59.7564 48 63.9998C48 68.2433 49.6857 72.313 52.6862 75.3135C55.6868 78.3141 59.7565 79.9998 64 79.9998C68.2434 79.9998 72.3131 78.3141 75.3137 75.3135C78.3142 72.313 80 68.2433 80 63.9998C80 59.7564 78.3142 55.6867 75.3137 52.6861C72.3131 49.6855 68.2434 47.9998 64 47.9998Z" fill="#FF3F7F"/>
</svg>
