<svg width="128" height="128" viewBox="0 0 128 128" fill="none" xmlns="http://www.w3.org/2000/svg">
<path d="M117.568 18.0854H10.4374C9.08371 18.0854 7.78549 18.6232 6.8283 19.5804C5.87112 20.5376 5.33337 21.8358 5.33337 23.1894V104.811C5.33337 107.627 7.61604 109.915 10.4374 109.915H117.568C118.238 109.915 118.901 109.783 119.52 109.526C120.139 109.27 120.702 108.894 121.175 108.42C121.649 107.946 122.024 107.383 122.28 106.764C122.536 106.144 122.667 105.481 122.667 104.811V23.1894C122.667 22.5194 122.536 21.8559 122.28 21.2366C122.024 20.6174 121.649 20.0547 121.175 19.5807C120.702 19.1067 120.139 18.7306 119.52 18.4741C118.901 18.2175 118.238 18.0854 117.568 18.0854Z" fill="white"/>
<path d="M112.464 28.3096V69.1202H99.7067V99.7336H15.536V28.3096H112.464Z" fill="#C2F3FF"/>
<path d="M34.88 99.7336H99.712V69.1202H112.459V28.3096H106.293L34.88 99.7336Z" fill="#66E1FF"/>
<path d="M122.667 46.1441V104.811C122.667 105.481 122.536 106.145 122.28 106.765C122.023 107.384 121.647 107.947 121.173 108.421C120.699 108.896 120.136 109.271 119.517 109.528C118.897 109.784 118.233 109.915 117.563 109.915H10.4374C9.76691 109.915 9.10289 109.784 8.48333 109.528C7.86377 109.271 7.30083 108.896 6.82674 108.421C6.35265 107.947 5.97672 107.384 5.72047 106.765C5.46421 106.145 5.33268 105.481 5.33338 104.811V23.1894C5.33338 21.8358 5.87112 20.5376 6.8283 19.5804C7.78549 18.6232 9.08371 18.0854 10.4374 18.0854H99.712" stroke="#191919" stroke-linecap="round" stroke-linejoin="round"/>
<path d="M112.464 84.4268H99.7067V99.7334H112.464V84.4268Z" fill="#FF808C"/>
<path d="M89.5041 28.3096H15.5308V99.7336H99.7068" stroke="#191919" stroke-linecap="round" stroke-linejoin="round"/>
<path d="M112.464 69.1201H99.7067V84.4268H112.464V69.1201Z" fill="#FFEF5E"/>
<path d="M112.464 69.1202V56.3735" stroke="#191919" stroke-linecap="round" stroke-linejoin="round"/>
<path d="M43.5948 79.3067C48.3305 79.3067 52.8722 77.4255 56.2209 74.0768C59.5695 70.7282 61.4508 66.1864 61.4508 61.4507C61.4508 56.715 59.5695 52.1733 56.2209 48.8246C52.8722 45.476 48.3305 43.5947 43.5948 43.5947C38.8591 43.5947 34.3173 45.476 30.9687 48.8246C27.62 52.1733 25.7388 56.715 25.7388 61.4507C25.7388 66.1864 27.62 70.7282 30.9687 74.0768C34.3173 77.4255 38.8591 79.3067 43.5948 79.3067Z" fill="#E3E3E3"/>
<path d="M43.5947 69.104C44.5998 69.104 45.595 68.9061 46.5235 68.5215C47.4521 68.1368 48.2958 67.5731 49.0065 66.8624C49.7171 66.1517 50.2809 65.308 50.6655 64.3795C51.0501 63.451 51.2481 62.4557 51.2481 61.4507C51.2481 60.4456 51.0501 59.4504 50.6655 58.5219C50.2809 57.5933 49.7171 56.7496 49.0065 56.039C48.2958 55.3283 47.4521 54.7646 46.5235 54.3799C45.595 53.9953 44.5998 53.7974 43.5947 53.7974C41.5649 53.7974 39.6183 54.6037 38.183 56.039C36.7477 57.4742 35.9414 59.4209 35.9414 61.4507C35.9414 63.4805 36.7477 65.4271 38.183 66.8624C39.6183 68.2977 41.5649 69.104 43.5947 69.104Z" fill="white"/>
<path d="M120.56 35.4985L94.6081 61.4505L81.8561 63.9999L84.4054 51.2479L110.357 25.2959C111.707 23.9492 113.536 23.1929 115.443 23.1929C117.349 23.1929 119.178 23.9492 120.528 25.2959L120.56 25.3279C121.907 26.6777 122.663 28.5065 122.663 30.4132C122.663 32.3199 121.907 34.1488 120.56 35.4985Z" fill="#808080"/>
<path d="M112.464 84.4268H99.7067V99.7334H112.464V84.4268Z" stroke="#191919" stroke-linecap="round" stroke-linejoin="round"/>
<path d="M112.464 69.1201H99.7068V84.4267H112.464V69.1201ZM43.5948 79.3067C48.3305 79.3067 52.8722 77.4255 56.2209 74.0768C59.5695 70.7282 61.4508 66.1864 61.4508 61.4507C61.4508 56.715 59.5695 52.1733 56.2209 48.8246C52.8722 45.476 48.3305 43.5947 43.5948 43.5947C38.8591 43.5947 34.3173 45.476 30.9687 48.8246C27.62 52.1733 25.7388 56.715 25.7388 61.4507C25.7388 66.1864 27.62 70.7282 30.9687 74.0768C34.3173 77.4255 38.8591 79.3067 43.5948 79.3067Z" stroke="#191919" stroke-linecap="round" stroke-linejoin="round"/>
<path d="M43.5947 69.1039C44.5998 69.1039 45.595 68.9059 46.5235 68.5213C47.4521 68.1367 48.2958 67.5729 49.0065 66.8623C49.7171 66.1516 50.2809 65.3079 50.6655 64.3793C51.0501 63.4508 51.2481 62.4556 51.2481 61.4505C51.2481 60.4455 51.0501 59.4503 50.6655 58.5217C50.2809 57.5932 49.7171 56.7495 49.0065 56.0388C48.2958 55.3281 47.4521 54.7644 46.5235 54.3798C45.595 53.9952 44.5998 53.7972 43.5947 53.7972C41.5649 53.7972 39.6183 54.6035 38.183 56.0388C36.7477 57.4741 35.9414 59.4207 35.9414 61.4505C35.9414 63.4803 36.7477 65.427 38.183 66.8623C39.6183 68.2975 41.5649 69.1039 43.5947 69.1039ZM120.56 35.4985L94.6081 61.4505L81.8561 63.9999L84.4054 51.2479L110.357 25.2959C111.707 23.9492 113.536 23.1929 115.443 23.1929C117.349 23.1929 119.178 23.9492 120.528 25.2959L120.56 25.3279C121.907 26.6777 122.663 28.5065 122.663 30.4132C122.663 32.3199 121.907 34.1488 120.56 35.4985Z" stroke="#191919" stroke-linecap="round" stroke-linejoin="round"/>
</svg>
