<svg width="128" height="132" viewBox="0 0 128 132" fill="none" xmlns="http://www.w3.org/2000/svg">
<path d="M127.928 29.8102C127.976 29.9857 128 30.1667 128 30.3487V58.6327C128 59.3717 127.605 60.0542 126.964 60.4217L103.225 74.0901V101.18C103.225 101.543 103.13 101.899 102.949 102.213C102.768 102.527 102.507 102.788 102.194 102.97L52.64 131.496C52.5265 131.56 52.403 131.601 52.279 131.646C52.2325 131.661 52.189 131.689 52.14 131.702C51.7936 131.793 51.4294 131.793 51.083 131.702C51.026 131.687 50.9745 131.656 50.9205 131.635C50.807 131.594 50.6885 131.558 50.5805 131.496L1.0365 102.969C0.721739 102.788 0.460195 102.528 0.278225 102.214C0.0962547 101.9 0.000289384 101.543 0 101.18L0 16.3282C0 16.1422 0.026 15.9617 0.072 15.7867C0.0875 15.7272 0.1235 15.6732 0.1445 15.6137C0.183 15.5057 0.2195 15.3947 0.276 15.2942C0.3145 15.2272 0.371 15.1732 0.4175 15.1112C0.477 15.0287 0.531 14.9437 0.6005 14.8712C0.66 14.8122 0.7375 14.7682 0.8045 14.7167C0.8795 14.6547 0.946 14.5877 1.031 14.5387H1.0335L25.8065 0.275656C26.1203 0.0953647 26.4759 0.000488281 26.8377 0.000488281C27.1996 0.000488281 27.5552 0.0953647 27.869 0.275656L52.642 14.5387H52.647C52.7295 14.5907 52.7995 14.6547 52.874 14.7142C52.941 14.7657 53.016 14.8122 53.075 14.8692C53.1475 14.9437 53.199 15.0292 53.2605 15.1112C53.3045 15.1732 53.364 15.2272 53.4 15.2942C53.459 15.3972 53.4925 15.5057 53.534 15.6142C53.5545 15.6732 53.5905 15.7272 53.606 15.7892C53.6535 15.9647 53.678 16.1462 53.6785 16.3282V69.3251L74.3215 57.4387V30.3462C74.3215 30.1662 74.3475 29.9827 74.394 29.8102C74.412 29.7482 74.4455 29.6942 74.466 29.6352C74.5075 29.5267 74.5435 29.4152 74.6 29.3152C74.6385 29.2482 74.695 29.1942 74.7395 29.1322C74.801 29.0497 74.8525 28.9647 74.9245 28.8922C74.9845 28.8332 75.059 28.7892 75.126 28.7377C75.2035 28.6757 75.2705 28.6087 75.353 28.5597H75.3555L100.131 14.2967C100.445 14.1159 100.8 14.0207 101.162 14.0207C101.524 14.0207 101.88 14.1159 102.193 14.2967L126.966 28.5597C127.054 28.6112 127.121 28.6757 127.199 28.7347C127.263 28.7867 127.338 28.8332 127.397 28.8897C127.469 28.9647 127.521 29.0497 127.582 29.1322C127.629 29.1942 127.686 29.2482 127.722 29.3152C127.781 29.4152 127.814 29.5267 127.855 29.6352C127.879 29.6942 127.913 29.7482 127.928 29.8102ZM123.87 57.4392V33.9192L115.201 38.9097L103.225 45.8057V69.3257L123.873 57.4392H123.87ZM99.0975 99.9867V76.4501L87.3165 83.1786L53.676 102.379V126.136L99.0975 99.9867ZM4.1295 19.8982V99.9867L49.546 126.134V102.381L25.82 88.9532L25.8125 88.9482L25.8025 88.9432C25.7225 88.8967 25.655 88.8297 25.5805 88.7732C25.5155 88.7212 25.441 88.6802 25.3845 88.6232L25.3795 88.6157C25.3125 88.5512 25.266 88.4712 25.2095 88.3992C25.1575 88.3292 25.096 88.2702 25.0545 88.1982L25.052 88.1902C25.0055 88.1132 24.977 88.0202 24.9435 87.9327C24.91 87.8552 24.8665 87.7827 24.8455 87.7007V87.6982C24.82 87.6002 24.815 87.4967 24.8045 87.3962C24.7945 87.3192 24.7735 87.2417 24.7735 87.1642V31.7852L12.799 24.8862L4.1295 19.9012V19.8982ZM26.8405 4.44666L6.1995 16.3282L26.8355 28.2092L47.4735 16.3252L26.8355 4.44666H26.8405ZM37.5745 78.5956L49.5485 71.7027V19.8982L40.88 24.8892L28.9025 31.7847V83.5887L37.5745 78.5956ZM101.162 18.4677L80.524 30.3487L101.162 42.2302L121.798 30.3462L101.162 18.4677ZM99.097 45.8057L87.1205 38.9097L78.4515 33.9192V57.4392L90.4255 64.3326L99.0975 69.3257L99.097 45.8057ZM51.6085 98.8087L81.88 81.5266L97.012 72.8907L76.389 61.0172L52.6445 74.6871L31.0035 87.1462L51.6085 98.8087Z" fill="#FF2D20"/>
</svg>
