<svg width="128" height="128" viewBox="0 0 128 128" fill="none" xmlns="http://www.w3.org/2000/svg">
<path d="M96 16C100.243 16 104.313 17.6857 107.314 20.6863C110.314 23.6869 112 27.7565 112 32V96C112 100.243 110.314 104.313 107.314 107.314C104.313 110.314 100.243 112 96 112H32C27.7565 112 23.6869 110.314 20.6863 107.314C17.6857 104.313 16 100.243 16 96V32C16 27.7565 17.6857 23.6869 20.6863 20.6863C23.6869 17.6857 27.7565 16 32 16H96ZM96 26.6667H32C30.5855 26.6667 29.229 27.2286 28.2288 28.2288C27.2286 29.229 26.6667 30.5855 26.6667 32V96C26.6667 97.4145 27.2286 98.771 28.2288 99.7712C29.229 100.771 30.5855 101.333 32 101.333H96C97.4145 101.333 98.771 100.771 99.7712 99.7712C100.771 98.771 101.333 97.4145 101.333 96V32C101.333 30.5855 100.771 29.229 99.7712 28.2288C98.771 27.2286 97.4145 26.6667 96 26.6667ZM42.6667 53.3333C43.973 53.3335 45.2338 53.8131 46.21 54.6811C47.1862 55.5492 47.8098 56.7453 47.9627 58.0427L48 58.6667V85.3333C47.9985 86.6927 47.478 88.0002 46.5448 88.9886C45.6116 89.9771 44.3363 90.5719 42.9792 90.6516C41.6222 90.7312 40.286 90.2897 39.2436 89.4173C38.2011 88.5448 37.5312 87.3072 37.3707 85.9573L37.3333 85.3333V58.6667C37.3333 57.2522 37.8952 55.8956 38.8954 54.8954C39.8956 53.8952 41.2522 53.3333 42.6667 53.3333ZM58.6667 48C59.9157 47.9998 61.1252 48.438 62.0842 49.2382C63.0433 50.0384 63.6911 51.1498 63.9147 52.3787C64.9889 51.7583 66.0984 51.2009 67.2373 50.7093C70.7947 49.1893 76.1227 48.352 80.9333 49.8613C83.456 50.6613 85.9893 52.1547 87.8667 54.6987C89.5467 56.9653 90.4533 59.7227 90.6347 62.8213L90.6667 64V85.3333C90.6652 86.6927 90.1446 88.0002 89.2115 88.9886C88.2783 89.9771 87.0029 90.5719 85.6459 90.6516C84.2889 90.7312 82.9526 90.2897 81.9102 89.4173C80.8678 88.5448 80.1979 87.3072 80.0373 85.9573L80 85.3333V64C80 62.24 79.5733 61.4187 79.296 61.04C78.8974 60.5454 78.349 60.1935 77.7333 60.0373C75.8773 59.4507 73.2053 59.76 71.4293 60.5173C68.7627 61.6587 66.32 63.4507 64.656 65.1093L64 65.8133V85.3333C63.9985 86.6927 63.478 88.0002 62.5448 88.9886C61.6116 89.9771 60.3363 90.5719 58.9792 90.6516C57.6222 90.7312 56.286 90.2897 55.2436 89.4173C54.2011 88.5448 53.5312 87.3072 53.3707 85.9573L53.3333 85.3333V53.3333C53.3333 51.9188 53.8952 50.5623 54.8954 49.5621C55.8956 48.5619 57.2522 48 58.6667 48ZM42.6667 37.3333C44.0812 37.3333 45.4377 37.8952 46.4379 38.8954C47.4381 39.8956 48 41.2522 48 42.6667C48 44.0812 47.4381 45.4377 46.4379 46.4379C45.4377 47.4381 44.0812 48 42.6667 48C41.2522 48 39.8956 47.4381 38.8954 46.4379C37.8952 45.4377 37.3333 44.0812 37.3333 42.6667C37.3333 41.2522 37.8952 39.8956 38.8954 38.8954C39.8956 37.8952 41.2522 37.3333 42.6667 37.3333Z" fill="#FF3F7F"/>
</svg>
