<svg width="128" height="128" viewBox="0 0 128 128" fill="none" xmlns="http://www.w3.org/2000/svg">
<path d="M0 91.3132H4.242V74.5662L10.808 89.1642C11.581 90.9342 12.64 91.5552 14.722 91.5552C16.804 91.5552 17.82 90.9342 18.593 89.1642L25.159 74.5662V91.3122H29.401V74.5942C29.401 72.9612 28.749 72.1722 27.401 71.7662C24.178 70.7622 22.018 71.6292 21.038 73.8052L14.597 88.2152L8.359 73.8052C7.422 71.6292 5.219 70.7622 2 71.7662C0.652 72.1722 0 72.9612 0 74.5942L0 91.3132ZM32.93 77.6802H37.168V86.9072C37.129 87.4072 37.328 88.5832 39.652 88.6222H48.875V77.6332H53.125C53.145 77.6332 53.117 92.6172 53.117 92.6802C53.14 96.3752 48.535 97.1762 46.41 97.2392H33.02V94.3872L46.434 94.3832C49.164 94.0982 48.84 92.7382 48.84 92.2852V91.1722H39.828C35.633 91.1332 32.965 89.3012 32.93 87.1952C32.926 87.0042 33.02 77.7742 32.93 77.6802Z" fill="#00618A"/>
<path d="M56.391 91.3128H68.586C70.012 91.3128 71.399 91.0118 72.5 90.4968C74.336 89.6568 75.23 88.5128 75.23 87.0168V83.9188C75.23 82.6958 74.214 81.5518 72.214 80.7938C71.155 80.3838 69.847 80.1688 68.585 80.1688H63.444C61.733 80.1688 60.917 79.6528 60.714 78.5128C60.675 78.3758 60.675 78.2668 60.675 78.1298V76.1998C60.675 76.0908 60.675 75.9808 60.714 75.8448C60.917 74.9778 61.366 74.7318 62.874 74.5948L63.284 74.5678H75.393V71.7438H63.488C61.777 71.7438 60.879 71.8528 60.062 72.0958C57.535 72.8848 56.433 74.1348 56.433 76.3108V78.7838C56.433 80.6858 58.593 82.3188 62.222 82.6978L63.445 82.7528H67.851C68.015 82.7528 68.175 82.7528 68.3 82.7798C69.644 82.8888 70.214 83.1348 70.624 83.6238C70.835 83.8188 70.956 84.0968 70.948 84.3818V86.8588C70.948 87.1558 70.745 87.5388 70.339 87.8628C69.972 88.1908 69.359 88.4058 68.546 88.4608L68.097 88.4878H56.391V91.3128ZM101.688 86.3908C101.688 89.3008 103.852 90.9298 108.211 91.2578L109.438 91.3128H120.489V88.4848H109.356C106.868 88.4848 105.93 87.8598 105.93 86.3638V71.7378H101.692V86.3898L101.688 86.3908ZM77.938 86.5388V76.4568C77.938 73.8978 79.739 72.3438 83.293 71.8548C83.6722 71.8001 84.0549 71.7727 84.438 71.7728H92.485C92.895 71.7728 93.262 71.7998 93.673 71.8548C97.228 72.3428 99.025 73.8978 99.025 76.4568V86.5388C99.025 88.6168 98.263 89.7268 96.502 90.4528L100.682 94.2228H95.756L92.377 91.1718L88.975 91.3868H84.44C83.5971 91.3842 82.7586 91.2657 81.948 91.0348C79.249 90.3008 77.94 88.8828 77.94 86.5388H77.938ZM82.516 86.2928C82.516 86.4298 82.555 86.5658 82.598 86.7308C82.844 87.9028 83.946 88.5548 85.621 88.5548H89.473L85.934 85.3598H90.86L93.946 88.1488C94.516 87.8438 94.887 87.3828 95.02 86.7858C95.059 86.6488 95.059 86.5128 95.059 86.3758V76.7078C95.059 76.5988 95.059 76.4618 95.02 76.3248C94.774 75.2348 93.672 74.6098 92.036 74.6098H85.622C83.743 74.6098 82.517 75.4258 82.517 76.7078L82.516 86.2928Z" fill="#E48E00"/>
<path d="M124.219 67.0472C121.614 66.9772 119.621 67.2192 117.918 67.9382C117.434 68.1412 116.66 68.1452 116.582 68.7512C116.848 69.0322 116.891 69.4502 117.102 69.7902C117.508 70.4502 118.196 71.3292 118.809 71.7902L120.883 73.2742C122.156 74.0512 123.582 74.4972 124.813 75.2742C125.536 75.7352 126.254 76.3132 126.961 76.8332C127.309 77.0872 127.543 77.4892 128 77.6492V77.5752C127.762 77.2702 127.699 76.8522 127.48 76.5362L126.515 75.5712C125.574 74.3212 124.378 73.2232 123.105 72.3092C122.089 71.5822 119.824 70.5982 119.398 69.4182L119.324 69.3442C120.043 69.2662 120.887 69.0042 121.547 68.8282C122.664 68.5272 123.66 68.6052 124.809 68.3082L126.368 67.8592V67.5662C125.786 66.9682 125.372 66.1792 124.735 65.6362C123.079 64.2262 121.266 62.8122 119.399 61.6322C118.364 60.9802 117.087 60.5582 115.989 60.0032C115.622 59.8162 114.973 59.7222 114.727 59.4092C114.153 58.6752 113.84 57.7452 113.395 56.8892L110.727 51.2562C110.165 49.9712 109.797 48.7012 109.094 47.5492C105.731 42.0142 102.106 38.6742 96.492 35.3932C95.301 34.6942 93.859 34.4202 92.344 34.0612L89.895 33.9132C89.399 33.7022 88.883 33.0932 88.415 32.8002C86.556 31.6242 81.786 29.0702 80.407 32.4292C79.54 34.5502 81.708 36.6202 82.485 37.6952C83.028 38.4492 83.727 39.2932 84.114 40.1402C84.372 40.6952 84.415 41.2532 84.634 41.8432C85.173 43.2962 85.642 44.8742 86.341 46.2182C86.693 46.8982 87.079 47.6132 87.525 48.2182C87.798 48.5892 88.267 48.7572 88.341 49.3312C87.884 49.9722 87.857 50.9642 87.599 51.7762C86.439 55.4282 86.876 59.9672 88.564 62.6742C89.08 63.5022 90.298 65.2832 91.974 64.6002C93.439 64.0022 93.111 62.1552 93.529 60.5222C93.627 60.1552 93.568 59.8812 93.752 59.6352V59.7092L95.088 62.3772C96.076 63.9672 97.826 65.6272 99.311 66.7482C100.084 67.3302 100.69 68.3382 101.686 68.6782V68.6002H101.612C101.417 68.3032 101.116 68.1782 100.87 67.9362C100.288 67.3662 99.643 66.6592 99.167 66.0062C97.815 64.1742 96.62 62.1662 95.534 60.0762C95.014 59.0802 94.561 57.9782 94.124 56.9632C93.956 56.5722 93.96 55.9792 93.608 55.7792C93.128 56.5212 92.421 57.1232 92.049 58.0022C91.455 59.4042 91.381 61.1192 91.158 62.8932L91.01 62.9672C89.979 62.7172 89.615 61.6552 89.233 60.7442C88.26 58.4392 88.081 54.7242 88.936 52.0722C89.155 51.3852 90.155 49.2202 89.749 48.5882C89.558 47.9552 88.921 47.5882 88.565 47.1042C88.0996 46.4552 87.7019 45.7602 87.378 45.0302C86.585 43.2292 86.214 41.2142 85.378 39.3972C84.98 38.5262 84.304 37.6472 83.749 36.8742C83.132 36.0192 82.444 35.3902 81.968 34.3542C81.8 33.9872 81.57 33.3972 81.82 33.0182C81.898 32.7642 82.015 32.6592 82.265 32.5772C82.695 32.2452 83.894 32.6862 84.339 32.8702C85.53 33.3662 86.523 33.8352 87.53 34.5032C88.01 34.8232 88.499 35.4442 89.085 35.6162H89.753C90.796 35.8542 91.964 35.6862 92.941 35.9832C94.664 36.5062 96.211 37.3232 97.609 38.2102C101.882 40.9052 105.375 44.7452 107.765 49.3272C108.152 50.0652 108.316 50.7682 108.656 51.5502C109.34 53.1282 110.199 54.7532 110.879 56.2962C111.559 57.8392 112.219 59.3902 113.176 60.6712C113.68 61.3432 115.629 61.7022 116.512 62.0772C117.133 62.3392 118.149 62.6122 118.735 62.9682C119.86 63.6442 120.946 64.4482 122.001 65.1912C122.524 65.5662 124.142 66.3792 124.224 67.0462L124.219 67.0472ZM91.082 38.8052C90.6336 38.7979 90.186 38.8477 89.75 38.9532V39.0272H89.824C90.082 39.5622 90.539 39.9062 90.859 40.3632L91.601 41.9182L91.675 41.8482C92.136 41.5242 92.343 41.0042 92.343 40.2152C92.156 40.0202 92.132 39.7782 91.972 39.5472C91.761 39.2382 91.352 39.0672 91.082 38.8052Z" fill="#00618A"/>
</svg>
