<svg width="128" height="79" viewBox="0 0 128 79" fill="none" xmlns="http://www.w3.org/2000/svg">
<path d="M63.2775 78.7723C62.8443 78.7723 62.4398 78.6561 62.064 78.4525L58.2213 76.1555C57.6433 75.8355 57.9323 75.7192 58.1058 75.6611C58.8858 75.3994 59.0303 75.3411 59.8393 74.8761C59.926 74.8178 60.0418 74.8469 60.1283 74.9051L63.0755 76.6788C63.191 76.7369 63.3355 76.7369 63.422 76.6788L74.9508 69.9618C75.0663 69.9037 75.1243 69.7872 75.1243 69.642V56.2372C75.1243 56.0915 75.0663 55.9755 74.9508 55.9171L63.422 49.2293C63.3065 49.1709 63.162 49.1709 63.0755 49.2293L51.5468 55.9171C51.4313 55.9753 51.3733 56.1207 51.3733 56.2369V69.6418C51.3733 69.7582 51.4313 69.9034 51.5468 69.9618L54.6963 71.7936C56.401 72.6659 57.47 71.6482 57.47 70.6305V57.4C57.47 57.2257 57.6145 57.0511 57.8168 57.0511H59.2903C59.4638 57.0511 59.637 57.1965 59.637 57.4V70.6305C59.637 72.9275 58.3945 74.2653 56.2275 74.2653C55.563 74.2653 55.043 74.2653 53.5693 73.5382L50.5355 71.7936C49.7843 71.3576 49.322 70.5432 49.322 69.6709V56.2661C49.322 55.3938 49.7843 54.5794 50.5355 54.1434L62.064 47.4264C62.7865 47.0193 63.769 47.0193 64.4913 47.4264L76.0198 54.1434C76.771 54.5794 77.2335 55.3938 77.2335 56.2661V69.6709C77.2335 70.5432 76.771 71.3576 76.0198 71.7936L64.4913 78.5106C64.1155 78.6852 63.682 78.7723 63.2775 78.7723ZM66.8318 69.5547C61.7755 69.5547 60.7353 67.2285 60.7353 65.2512C60.7353 65.0766 60.8798 64.9023 61.082 64.9023H62.5845C62.7578 64.9023 62.9023 65.0185 62.9023 65.1931C63.1335 66.7341 63.798 67.4901 66.8608 67.4901C69.2878 67.4901 70.3283 66.9376 70.3283 65.6291C70.3283 64.8731 70.039 64.3208 66.254 63.9427C63.1045 63.6227 61.1398 62.925 61.1398 60.3952C61.1398 58.0398 63.1048 56.644 66.3985 56.644C70.0968 56.644 71.9173 57.9236 72.1485 60.7148C72.1485 60.8021 72.1196 60.8894 72.0618 60.9767C72.0038 61.0348 71.9173 61.0929 71.8305 61.0929H70.328C70.1835 61.0929 70.039 60.9767 70.0103 60.8312C69.6635 59.2321 68.7678 58.7086 66.3985 58.7086C63.7403 58.7086 63.4223 59.6392 63.4223 60.3369C63.4223 61.1802 63.798 61.4419 67.3808 61.9071C70.9348 62.3725 72.6108 63.0412 72.6108 65.5418C72.5818 68.1007 70.5015 69.5547 66.8318 69.5547Z" fill="#539E43"/>
<path d="M27.507 26.3448C27.507 25.8215 27.218 25.3269 26.7557 25.0652L14.5047 17.9703C14.3022 17.8538 14.0712 17.7957 13.8402 17.7665H13.7245C13.4935 17.7665 13.2622 17.8538 13.06 17.9703L0.808989 25.0652C0.346489 25.3269 0.0577393 25.8212 0.0577393 26.3448L0.0867393 45.4198C0.0867393 45.6814 0.231239 45.9431 0.462239 46.0596C0.693489 46.205 0.982239 46.205 1.18474 46.0596L8.46599 41.8723C8.92824 41.6107 9.21724 41.1163 9.21724 40.593V31.666C9.21724 31.1427 9.50599 30.6483 9.96849 30.3866L13.06 28.5837C13.2912 28.4383 13.5512 28.3799 13.8112 28.3799C14.0712 28.3799 14.3312 28.4383 14.5337 28.5837L17.6252 30.3866C18.0877 30.6483 18.3765 31.1424 18.3765 31.666V40.593C18.3765 41.1163 18.6655 41.6107 19.1277 41.8723L26.409 46.0596C26.5215 46.1308 26.6517 46.1687 26.7846 46.1687C26.9175 46.1687 27.0478 46.1308 27.1602 46.0596C27.3915 45.9431 27.536 45.6814 27.536 45.4198L27.507 26.3448ZM86.3927 0.0873654C86.1617 -0.0291218 85.8727 -0.0291218 85.6702 0.0873654C85.4392 0.232786 85.2947 0.465257 85.2947 0.726913V19.6278C85.2947 19.8021 85.2082 19.9765 85.0347 20.093C84.8614 20.18 84.6881 20.18 84.5147 20.093L81.452 18.3193C81.2274 18.1907 80.9735 18.1231 80.7151 18.1231C80.4567 18.1231 80.2028 18.1907 79.9782 18.3193L67.7272 25.4433C67.265 25.705 66.976 26.1994 66.976 26.7227V40.9417C66.976 41.465 67.265 41.9596 67.7272 42.2213L79.9782 49.3454C80.2028 49.474 80.4567 49.5416 80.7151 49.5416C80.9735 49.5416 81.2274 49.474 81.452 49.3454L93.703 42.2213C94.1652 41.9596 94.4542 41.4652 94.4542 40.9417V5.49585C94.4542 4.94335 94.1652 4.44922 93.703 4.18731L86.3927 0.0873654ZM85.266 36.2603C85.266 36.4057 85.2082 36.522 85.0925 36.5801L80.903 39.0225C80.8445 39.0513 80.7802 39.0663 80.7151 39.0663C80.65 39.0663 80.5857 39.0513 80.5272 39.0225L76.3377 36.5801C76.222 36.522 76.1642 36.3765 76.1642 36.2603V31.3751C76.1642 31.2297 76.222 31.1135 76.3377 31.0554L80.5272 28.6127C80.5857 28.5839 80.65 28.5689 80.7151 28.5689C80.7802 28.5689 80.8445 28.5839 80.903 28.6127L85.0925 31.0554C85.2082 31.1132 85.266 31.2589 85.266 31.3751V36.2603ZM127.162 31.2589C127.624 30.9972 127.884 30.5029 127.884 29.9793V26.5192C127.884 25.9958 127.595 25.5015 127.162 25.2398L114.998 18.1449C114.773 18.0163 114.519 17.9487 114.261 17.9487C114.002 17.9487 113.749 18.0163 113.524 18.1449L101.273 25.2687C100.81 25.5304 100.522 26.0248 100.522 26.5481V40.7673C100.522 41.2906 100.811 41.785 101.273 42.0467L113.437 49.0253C113.9 49.287 114.449 49.287 114.882 49.0253L122.25 44.8967C122.481 44.7802 122.626 44.5186 122.626 44.2569C122.626 43.9953 122.481 43.7336 122.25 43.6171L109.941 36.493C109.71 36.3476 109.565 36.1151 109.565 35.8535V31.4046C109.565 31.1429 109.71 30.8813 109.941 30.7648L113.784 28.5548C113.896 28.4835 114.027 28.4457 114.16 28.4457C114.293 28.4457 114.423 28.4835 114.535 28.5548L118.378 30.7648C118.609 30.9102 118.754 31.1427 118.754 31.4046V34.8939C118.754 35.1556 118.898 35.4172 119.129 35.5335C119.242 35.6047 119.372 35.6425 119.505 35.6425C119.638 35.6425 119.768 35.6047 119.881 35.5335L127.162 31.2589Z" fill="#333333"/>
<path d="M114.073 30.59C114.116 30.5616 114.166 30.5464 114.218 30.5464C114.269 30.5464 114.319 30.5616 114.362 30.59L116.703 31.9567C116.789 32.015 116.847 32.1021 116.847 32.2183V34.9519C116.847 35.0681 116.789 35.1554 116.703 35.2135L114.362 36.5802C114.319 36.6086 114.269 36.6238 114.218 36.6238C114.166 36.6238 114.116 36.6086 114.073 36.5802L111.733 35.2135C111.646 35.1554 111.588 35.0681 111.588 34.9519V32.2186C111.588 32.1021 111.646 32.0148 111.733 31.9569L114.073 30.59Z" fill="#539E43"/>
<path d="M47.9927 18.203C47.7682 18.0744 47.5143 18.0068 47.2559 18.0068C46.9976 18.0068 46.7437 18.0744 46.5192 18.203L34.3549 25.2684C33.8924 25.5301 33.6324 26.0245 33.6324 26.5478V40.7089C33.6324 41.2322 33.9214 41.7266 34.3549 41.9883L46.5192 49.0542C46.7437 49.1828 46.9976 49.2504 47.2559 49.2504C47.5143 49.2504 47.7682 49.1828 47.9927 49.0542L60.1572 41.9883C60.6194 41.7266 60.8797 41.2322 60.8797 40.7089V26.548C60.8797 26.0247 60.5904 25.5303 60.1572 25.2687L47.9927 18.203Z" fill="url(#paint0_linear_392_263)"/>
<mask id="mask0_392_263" style="mask-type:luminance" maskUnits="userSpaceOnUse" x="33" y="18" width="28" height="32">
<path d="M47.9927 18.203C47.7682 18.0744 47.5143 18.0068 47.2559 18.0068C46.9976 18.0068 46.7437 18.0744 46.5192 18.203L34.3549 25.2684C33.8924 25.5301 33.6324 26.0245 33.6324 26.5478V40.7089C33.6324 41.2322 33.9214 41.7266 34.3549 41.9883L46.5192 49.0542C46.7437 49.1828 46.9976 49.2504 47.2559 49.2504C47.5143 49.2504 47.7682 49.1828 47.9927 49.0542L60.1572 41.9883C60.6194 41.7266 60.8797 41.2322 60.8797 40.7089V26.548C60.8797 26.0247 60.5904 25.5303 60.1572 25.2687L47.9927 18.203Z" fill="white"/>
</mask>
<g mask="url(#mask0_392_263)">
<path d="M60.186 25.2688L47.964 18.203C47.8439 18.142 47.718 18.0932 47.5882 18.0576L33.8925 41.6691C34.006 41.8084 34.143 41.9265 34.2972 42.018L46.5192 49.084C46.866 49.2875 47.2705 49.3456 47.646 49.2292L60.504 25.5599C60.4172 25.4436 60.3015 25.3558 60.186 25.2688Z" fill="url(#paint1_linear_392_263)"/>
</g>
<mask id="mask1_392_263" style="mask-type:luminance" maskUnits="userSpaceOnUse" x="33" y="18" width="28" height="32">
<path d="M47.9927 18.203C47.7682 18.0744 47.5143 18.0068 47.2559 18.0068C46.9976 18.0068 46.7437 18.0744 46.5192 18.203L34.3549 25.2684C33.8924 25.5301 33.6324 26.0245 33.6324 26.5478V40.7089C33.6324 41.2322 33.9214 41.7266 34.3549 41.9883L46.5192 49.0542C46.7437 49.1828 46.9976 49.2504 47.2559 49.2504C47.5143 49.2504 47.7682 49.1828 47.9927 49.0542L60.1572 41.9883C60.6194 41.7266 60.8797 41.2322 60.8797 40.7089V26.548C60.8797 26.0247 60.5904 25.5303 60.1572 25.2687L47.9927 18.203Z" fill="white"/>
</mask>
<g mask="url(#mask1_392_263)">
<path fill-rule="evenodd" clip-rule="evenodd" d="M60.215 41.9886C60.5617 41.785 60.8217 41.4361 60.9375 41.0582L47.5302 18.0284C47.1835 17.9703 46.8077 17.9992 46.4902 18.2028L34.3547 25.2398L47.4435 49.2581C47.6339 49.2269 47.8188 49.1682 47.9925 49.0837L60.215 41.9886Z" fill="url(#paint2_linear_392_263)"/>
<path fill-rule="evenodd" clip-rule="evenodd" d="M60.2149 41.9884L48.0217 49.0544C47.8495 49.1426 47.664 49.2015 47.4727 49.2287L47.7039 49.665L61.2262 41.7851V41.6105L60.8794 41.0288C60.8217 41.4359 60.5617 41.7848 60.2149 41.9884Z" fill="url(#paint3_linear_392_263)"/>
<path fill-rule="evenodd" clip-rule="evenodd" d="M60.2149 41.9884L48.0217 49.0544C47.8495 49.1426 47.664 49.2015 47.4727 49.2287L47.7039 49.665L61.2262 41.7851V41.6105L60.8794 41.0288C60.8217 41.4359 60.5617 41.7848 60.2149 41.9884Z" fill="url(#paint4_linear_392_263)"/>
</g>
<defs>
<linearGradient id="paint0_linear_392_263" x1="52.2118" y1="23.4704" x2="38.7579" y2="44.4768" gradientUnits="userSpaceOnUse">
<stop stop-color="#41873F"/>
<stop offset="0.3288" stop-color="#418B3D"/>
<stop offset="0.6352" stop-color="#419637"/>
<stop offset="0.9319" stop-color="#3FA92D"/>
<stop offset="1" stop-color="#3FAE2A"/>
</linearGradient>
<linearGradient id="paint1_linear_392_263" x1="45.4091" y1="35.2874" x2="78.8978" y2="17.2081" gradientUnits="userSpaceOnUse">
<stop offset="0.1376" stop-color="#41873F"/>
<stop offset="0.4032" stop-color="#54A044"/>
<stop offset="0.7136" stop-color="#66B848"/>
<stop offset="0.9081" stop-color="#6CC04A"/>
</linearGradient>
<linearGradient id="paint2_linear_392_263" x1="33.188" y1="33.6291" x2="61.336" y2="33.6291" gradientUnits="userSpaceOnUse">
<stop offset="0.09192" stop-color="#6CC04A"/>
<stop offset="0.2864" stop-color="#66B848"/>
<stop offset="0.5968" stop-color="#54A044"/>
<stop offset="0.8624" stop-color="#41873F"/>
</linearGradient>
<linearGradient id="paint3_linear_392_263" x1="33.1881" y1="45.3706" x2="61.3358" y2="45.3706" gradientUnits="userSpaceOnUse">
<stop offset="0.09192" stop-color="#6CC04A"/>
<stop offset="0.2864" stop-color="#66B848"/>
<stop offset="0.5968" stop-color="#54A044"/>
<stop offset="0.8624" stop-color="#41873F"/>
</linearGradient>
<linearGradient id="paint4_linear_392_263" x1="65.4365" y1="22.8006" x2="58.2177" y2="60.3874" gradientUnits="userSpaceOnUse">
<stop stop-color="#41873F"/>
<stop offset="0.3288" stop-color="#418B3D"/>
<stop offset="0.6352" stop-color="#419637"/>
<stop offset="0.9319" stop-color="#3FA92D"/>
<stop offset="1" stop-color="#3FAE2A"/>
</linearGradient>
</defs>
</svg>
