<svg width="128" height="128" viewBox="0 0 128 128" fill="none" xmlns="http://www.w3.org/2000/svg">
<path d="M64 96.4266C28.64 96.4266 0 81.9199 0 63.9999C0 46.0799 28.64 31.5732 64 31.5732C99.36 31.5732 128 46.0799 128 63.9999C128 81.9199 99.36 96.4266 64 96.4266ZM36.32 54.0266C39.2 54.0266 41.1733 54.5599 42.1333 55.6799C43.0933 56.7466 43.3067 58.6666 42.8267 61.1732C42.2933 63.9999 41.28 65.8132 39.7333 66.9866C38.24 68.1599 35.9467 68.7466 32.8533 68.7466H28.2133L31.04 54.0266H36.32ZM17.6533 83.6266H25.3333L27.1467 74.2932H33.7067C36.5867 74.2932 38.9333 73.9732 40.8 73.3866C42.6667 72.7466 44.3733 71.7332 45.92 70.2932C47.2 69.1199 48.2133 67.8399 49.0133 66.3999C49.8133 65.0132 50.4 63.4132 50.6667 61.7066C51.52 57.5466 50.9333 54.2932 48.9067 51.9999C46.8267 49.6532 43.6267 48.5332 39.2 48.5332H24.48L17.6533 83.6266ZM56.32 39.1999L49.4933 74.2932H57.0667L61.0133 54.1866H67.0933C69.0133 54.1866 70.2933 54.5066 70.88 55.1466C71.4667 55.7866 71.5733 56.9599 71.2533 58.6666L68.2133 74.2932H75.9467L79.0933 57.9199C79.7867 54.6132 79.2533 52.2132 77.6533 50.6666C76.0533 49.2266 73.12 48.5332 68.8533 48.5332H62.08L64 39.1999H56.32ZM96 54.0266C98.9333 54.0266 100.853 54.5599 101.813 55.6799C102.773 56.7466 102.987 58.6666 102.507 61.1732C101.973 63.9999 100.96 65.8132 99.4667 66.9866C97.92 68.1599 95.6267 68.7466 92.5333 68.7466H88L90.6667 54.0266H96ZM77.3333 83.6266H85.0133L86.8267 74.2932H93.3333C96.2667 74.2932 98.6667 73.9732 100.533 73.3866C102.4 72.7466 104 71.7332 105.6 70.2932C106.88 69.1199 107.947 67.8399 108.693 66.3999C109.493 65.0132 110.08 63.4132 110.4 61.7066C111.2 57.5466 110.613 54.2932 108.587 51.9999C106.667 49.6532 103.307 48.5332 98.88 48.5332H84.2133L77.3333 83.6266Z" fill="#1E88E5"/>
</svg>
