<svg width="128" height="128" viewBox="0 0 128 128" fill="none" xmlns="http://www.w3.org/2000/svg">
<path d="M64 73.896C69.5228 73.896 74 69.4188 74 63.896C74 58.3731 69.5228 53.896 64 53.896C58.4772 53.896 54 58.3731 54 63.896C54 69.4188 58.4772 73.896 64 73.896Z" fill="#00D8FF"/>
<path d="M64 86.8242C51.9806 87.1139 39.9914 85.4937 28.48 82.0242C23.1625 80.3385 18.2029 77.6831 13.852 74.1922C12.1911 73.0002 10.8081 71.4627 9.79792 69.6853C8.78773 67.908 8.17438 65.9331 8 63.8962C8 57.2842 15.264 50.8042 27.432 46.5642C39.2516 42.8103 51.5999 40.9895 64 41.1722C76.2347 41.003 88.4178 42.7909 100.088 46.4682C105.208 48.1027 109.999 50.6296 114.24 53.9322C115.87 55.0709 117.231 56.5533 118.226 58.2748C119.221 59.9964 119.827 61.9152 120 63.8962C120 70.7682 111.88 77.7322 98.8 82.0602C87.5117 85.4177 75.7753 87.0243 64 86.8242ZM64 45.9562C52.1367 45.8011 40.3241 47.532 29.004 51.0842C17.804 54.9922 12.784 60.3362 12.784 63.8842C12.784 67.5962 18.18 73.4322 30.028 77.4842C41.0401 80.7882 52.5064 82.326 64 82.0402C75.2656 82.2416 86.4957 80.7173 97.3 77.5202C109.6 73.4442 115.2 67.6002 115.2 63.8962C114.997 62.6253 114.534 61.4101 113.839 60.3273C113.143 59.2444 112.231 58.3172 111.16 57.6042C107.367 54.6732 103.087 52.4336 98.516 50.9882C87.3515 47.4857 75.6997 45.7871 64 45.9562Z" fill="#00D8FF"/>
<path d="M41.28 113.772C39.414 113.815 37.5701 113.362 35.936 112.46C30.208 109.156 28.224 99.6281 30.628 86.9681C33.2816 74.8534 37.8741 63.2466 44.228 52.5961C50.1923 41.9134 57.826 32.2528 66.84 23.9801C70.8139 20.3605 75.3964 17.472 80.376 15.4481C82.1781 14.6062 84.143 14.1699 86.132 14.1699C88.1211 14.1699 90.0859 14.6062 91.888 15.4481C97.844 18.8801 99.816 29.3921 97.036 42.8841C94.304 54.3424 89.8306 65.314 83.772 75.4161C78.0181 85.9729 70.6248 95.5494 61.868 103.788C57.7512 107.551 52.9734 110.52 47.776 112.544C45.6958 113.318 43.4993 113.733 41.28 113.772ZM48.372 54.9721C42.3116 65.1709 37.9101 76.2679 35.332 87.8481C33.12 99.5081 35.244 106.52 38.332 108.304C41.532 110.156 49.3 108.4 58.732 100.16C67.0926 92.2683 74.1495 83.1012 79.64 73.0001C85.4438 63.3421 89.7348 52.8526 92.364 41.8961C94.98 29.1961 92.72 21.4201 89.512 19.5721C88.3095 19.1121 87.0248 18.9062 85.7387 18.9675C84.4527 19.0288 83.1934 19.3558 82.04 19.9281C77.607 21.7579 73.5313 24.355 70 27.6001C61.3885 35.5249 54.0968 44.7732 48.4 54.9961L48.372 54.9721Z" fill="#00D8FF"/>
<path d="M86.708 113.824C81.288 113.824 74.404 110.544 67.236 104.38C58.065 96.0309 50.3024 86.2558 44.248 75.4319C37.9724 64.9286 33.4162 53.4896 30.752 41.5479C29.5992 36.2936 29.3852 30.8768 30.12 25.5479C30.2927 23.5718 30.8956 21.6573 31.8865 19.9388C32.8774 18.2203 34.2322 16.7394 35.856 15.5999C41.804 12.1559 51.896 15.6959 62.196 24.8399C70.7583 32.9287 78.0295 42.2827 83.756 52.5759C90.0282 62.8338 94.6321 74.0224 97.396 85.7239C98.6004 91.1707 98.7862 96.7935 97.944 102.308C97.7443 104.342 97.1069 106.308 96.0753 108.072C95.0437 109.837 93.6425 111.357 91.968 112.528C90.3599 113.417 88.545 113.864 86.708 113.824ZM48.388 73.0239C54.1966 83.3677 61.6117 92.723 70.356 100.74C79.352 108.48 86.488 110.144 89.556 108.34C92.756 106.48 95.116 98.8879 92.684 86.6039C90.0202 75.4314 85.6042 64.7512 79.6 54.9599C74.1353 45.1084 67.1949 36.1514 59.02 28.3999C49.324 19.7919 41.46 17.8679 38.256 19.7239C37.2579 20.5359 36.4388 21.5458 35.8502 22.69C35.2616 23.8341 34.9162 25.0877 34.836 26.3719C34.2005 31.1243 34.4077 35.9515 35.448 40.6319C38.0115 52.0518 42.3811 62.9893 48.392 73.0319L48.388 73.0239Z" fill="#00D8FF"/>
</svg>
