<svg width="128" height="128" viewBox="0 0 128 128" fill="none" xmlns="http://www.w3.org/2000/svg">
<path d="M93.0666 77.5999C85.8666 70.3999 74.1333 70.3999 66.9333 77.5999L56.2666 88.2666C51.7333 92.7999 44.2666 92.7999 39.7333 88.2666C35.2 83.7333 35.2 76.2666 39.7333 71.7333L51.7333 59.7333L44.2666 52.2666L32.2666 64.2666C23.4666 73.0666 23.4666 87.1999 32.2666 95.7333C41.0666 104.533 55.2 104.533 63.7333 95.7333L74.4 85.0666C77.6 82.1333 82.4 82.1333 85.6 85.0666C88.5333 88.2666 88.5333 93.0666 85.6 96.2666L72 109.867L79.4666 117.333L93.0666 103.733C100.267 96.5333 100.267 84.7999 93.0666 77.5999Z" fill="#37474F"/>
<path d="M42.9334 61.0665C35.4667 53.5998 35.4667 41.5998 42.9334 34.3998L61.0667 16.2665C68.5334 8.79984 80.5334 8.79984 87.7334 16.2665C95.2 23.7332 95.2 35.7332 87.7334 42.9332L69.6 61.0665C62.1334 68.5332 50.4 68.5332 42.9334 61.0665Z" fill="#0277BD"/>
<path d="M74.6667 39.9998C80.5577 39.9998 85.3333 35.2242 85.3333 29.3332C85.3333 23.4421 80.5577 18.6665 74.6667 18.6665C68.7756 18.6665 64 23.4421 64 29.3332C64 35.2242 68.7756 39.9998 74.6667 39.9998Z" fill="#B3E5FC"/>
</svg>
