<svg width="128" height="128" viewBox="0 0 128 128" fill="none" xmlns="http://www.w3.org/2000/svg">
<path d="M79.363 59.7549L53.729 68.1249L31.429 77.9669L25.189 79.6149C23.5421 81.1876 21.8559 82.7188 20.132 84.2069C18.156 85.9109 16.316 87.4619 14.902 88.5849C13.332 89.8249 11.007 92.1499 9.82505 93.6229C8.06105 95.8319 6.66705 98.1759 6.06605 99.9779C5.00005 103.233 5.52405 106.527 7.57705 109.569C10.213 113.444 15.463 117.397 21.585 120.089C24.705 121.466 29.955 123.229 33.909 124.216C40.476 125.883 53.187 127.686 60.181 127.956C61.595 128.015 63.494 128.015 63.571 127.956C63.727 127.859 64.812 125.786 66.072 123.21C70.372 114.432 73.472 106.198 75.159 99.1639C76.166 94.9019 76.96 89.2249 77.483 82.5019C77.619 80.6219 77.677 74.3249 77.561 72.1939C77.386 68.7069 77.076 65.8779 76.591 63.1079C76.514 62.6999 76.495 62.3319 76.534 62.3119C76.611 62.2549 76.844 62.1769 80.002 61.2659L79.363 59.7549ZM73.512 63.1849C73.745 63.1849 74.364 69.1319 74.519 72.8909C74.558 73.6859 74.539 74.2089 74.499 74.2089C74.345 74.2089 71.225 72.3689 68.998 70.9729C67.06 69.7529 63.378 67.3119 62.798 66.8459C62.603 66.7109 62.622 66.6909 64.211 66.1489C66.904 65.2389 73.299 63.1839 73.511 63.1839L73.512 63.1849ZM60.452 67.4849C60.627 67.4849 61.072 67.7369 62.138 68.3959C66.129 70.8959 71.555 73.9189 73.88 74.9259C74.596 75.2359 74.674 75.1189 73.027 76.2439C69.501 78.6459 65.103 81.0099 59.717 83.3929C58.767 83.8189 57.972 84.1479 57.953 84.1479C57.914 84.1479 58.031 83.6639 58.186 83.0829C59.483 78.2579 60.22 73.3759 60.259 69.4619C60.279 67.5239 60.279 67.5239 60.453 67.4659C60.413 67.4859 60.433 67.4859 60.453 67.4859L60.452 67.4849ZM57.76 68.5119C57.876 68.6289 57.798 72.9689 57.643 74.1509C57.2956 77.0067 56.6993 79.8268 55.861 82.5789C55.648 83.2959 55.454 83.8969 55.415 83.9349C55.337 84.0319 52.683 81.4349 51.811 80.4279C50.3 78.6839 49.118 76.9409 48.246 75.2359C47.801 74.3639 47.103 72.6589 47.161 72.6009C47.471 72.3869 57.682 68.4349 57.76 68.5119ZM45.088 73.4919C45.107 73.4919 45.126 73.4919 45.146 73.5109C45.185 73.5499 45.321 73.8609 45.437 74.2089C46.057 75.8939 47.451 78.3739 48.653 79.9629C49.971 81.7069 51.695 83.5679 53.129 84.7879C53.594 85.1749 54.02 85.5429 54.078 85.6009C54.194 85.7179 54.233 85.6979 51.074 86.8999C47.414 88.2949 43.422 89.6899 38.849 91.1619C37.7567 91.5141 36.6654 91.8695 35.575 92.2279C35.4 92.2859 35.459 92.1879 35.962 91.3939C38.229 87.8499 41.677 80.8939 43.615 75.9719C43.945 75.1189 44.275 74.2669 44.333 74.0729C44.41 73.8019 44.507 73.7049 44.758 73.5689C44.894 73.5309 45.03 73.4919 45.088 73.4919ZM41.213 75.0999C41.271 75.1389 40.283 77.2119 39.314 79.1099C37.434 82.7729 35.381 86.3769 32.63 90.7559C32.164 91.5109 31.72 92.2089 31.66 92.2859C31.564 92.4219 31.526 92.3829 31.215 91.7829C30.556 90.4839 30.014 88.8179 29.723 87.2869C29.433 85.7759 29.491 83.1409 29.821 81.5129C30.071 80.3129 30.053 80.3319 30.634 80.0409C33.114 78.7809 41.135 75.0229 41.213 75.0999ZM74.635 76.4569V77.2699C74.635 81.5909 74.17 87.5199 73.492 91.8399C73.376 92.5959 73.279 93.2159 73.26 93.2359C73.26 93.2359 72.698 93.0809 72.04 92.8869C68.9521 91.9064 65.9667 90.628 63.126 89.0699C61.246 88.0429 58.516 86.3569 58.593 86.2799C58.612 86.2599 59.426 85.8339 60.375 85.3299C64.173 83.3539 67.815 81.2229 70.974 79.1099C72.156 78.3159 73.938 77.0379 74.325 76.6889L74.635 76.4569ZM26.585 82.1909C26.662 82.1909 26.642 82.3459 26.526 83.0439C26.4294 83.7317 26.3583 84.4228 26.313 85.1159C26.158 87.9459 26.623 90.0389 28.018 92.9059C28.406 93.6999 28.716 94.3589 28.696 94.3779C28.561 94.4949 15.734 98.2539 11.704 99.3579C10.503 99.6879 9.45705 99.9779 9.37905 99.9969C9.24305 100.037 9.22405 100.017 9.28205 99.6869C9.72805 96.8389 11.898 93.1189 14.921 89.9799C16.935 87.8869 18.544 86.6669 21.295 85.0979C23.271 83.9739 26.313 82.2879 26.545 82.2109C26.545 82.1909 26.565 82.1909 26.585 82.1909ZM56.81 87.5969C56.83 87.5769 57.294 87.8299 57.856 88.1589C62.003 90.5619 67.776 92.7899 72.697 93.9329L73.143 94.0299L72.523 94.3789C69.947 95.8129 61.479 99.3389 52.819 102.574C51.559 103.039 50.319 103.504 50.087 103.601C49.855 103.698 49.641 103.756 49.641 103.736C49.641 103.716 49.99 103.039 50.435 102.206C52.857 97.6719 55.298 92.1499 56.539 88.3139C56.694 87.9459 56.79 87.6169 56.809 87.5969H56.81ZM53.73 88.6039C53.749 88.6239 53.594 89.0309 53.4 89.4959C51.714 93.5839 49.505 98.0409 46.676 103.039C45.96 104.319 45.359 105.345 45.34 105.345C45.321 105.345 44.739 104.996 44.041 104.57C39.934 102.051 36.291 98.9509 33.909 95.9479L33.559 95.5219L35.323 95.0369C41.639 93.3129 47.006 91.4529 52.334 89.1669C53.09 88.8569 53.711 88.6039 53.73 88.6039ZM72.872 95.2889C72.892 95.7349 71.903 99.7259 71.089 102.613C70.411 105.035 69.83 106.933 68.764 110.285C68.3 111.759 67.894 112.978 67.874 112.978C67.854 112.978 67.738 112.96 67.621 112.921C61.867 111.874 56.713 110.421 51.869 108.484C50.513 107.941 48.576 107.069 48.459 106.972C48.421 106.933 49.583 106.391 51.056 105.752C59.872 101.896 69.016 97.5169 72.156 95.6379C72.524 95.4049 72.814 95.2889 72.872 95.2889ZM28.677 96.7999C28.716 96.8399 26.255 100.385 22.807 105.21C21.605 106.895 20.21 108.871 19.687 109.607C19.082 110.461 18.4942 111.326 17.924 112.204L17.11 113.464L16.238 112.727C15.211 111.874 13.429 110.053 12.634 109.046C10.968 106.973 9.84405 104.783 9.39905 102.788C9.18505 101.858 9.18505 101.392 9.37905 101.335C12.8121 100.515 16.2481 99.7071 19.687 98.9119C22.0013 98.3791 24.3133 97.8368 26.623 97.2849C27.747 97.0139 28.658 96.7999 28.677 96.7999ZM31.157 97.7499L31.777 98.4469C34.567 101.567 37.415 103.873 40.864 105.887C41.484 106.237 41.949 106.547 41.91 106.567C41.775 106.663 29.936 110.867 24.453 112.766C22.5779 113.43 20.6986 114.083 18.815 114.723C18.796 114.723 18.621 114.606 18.428 114.471L18.079 114.219L18.641 113.405C20.461 110.77 22.748 107.883 27.727 101.877L31.157 97.7499ZM46.619 108.813C46.638 108.793 47.49 109.103 48.537 109.492C51.056 110.441 53.051 111.042 55.725 111.72C59.019 112.553 63.785 113.367 66.595 113.6C67.021 113.638 67.253 113.677 67.176 113.735C67.04 113.812 64.192 114.762 62.1 115.42C58.767 116.467 48.595 119.47 40.302 121.853C39.329 122.138 38.354 122.416 37.377 122.687C37.183 122.725 36.543 122.55 36.543 122.473C36.543 122.435 37.008 121.834 37.57 121.175C40.36 117.842 43.131 114.122 45.437 110.596C46.077 109.627 46.619 108.832 46.619 108.813ZM43.209 108.91C43.228 108.93 41.852 111.138 39.449 114.936C38.423 116.544 37.279 118.366 36.873 119.005C36.485 119.625 35.903 120.594 35.575 121.136L35.013 122.124L34.722 122.047C34.024 121.853 29.122 120.128 27.824 119.605C26.2846 118.993 24.7779 118.301 23.31 117.533C21.76 116.699 19.823 115.459 19.978 115.42C20.016 115.4 22.671 114.684 25.868 113.812C34.353 111.506 39.062 110.17 42.143 109.201C42.705 109.026 43.189 108.891 43.208 108.911L43.209 108.91ZM67.331 114.567H67.351C67.428 114.762 64.289 123.48 63.145 126.231C62.894 126.851 62.797 127.007 62.661 126.987C62.332 126.967 57.779 126.329 55.008 125.922C50.184 125.186 42.084 123.771 40.051 123.306L39.585 123.209L42.472 122.55C48.672 121.155 51.656 120.4 54.679 119.47C58.5826 118.276 62.3963 116.806 66.091 115.071C66.691 114.801 67.195 114.586 67.331 114.567Z" fill="url(#paint0_linear_418_178)"/>
<path d="M52.9351 0.001C52.5091 -0.057 45.6301 2.423 41.1941 4.225C35.2061 6.666 30.5571 8.991 27.6891 11.006C26.6231 11.762 25.2861 13.099 25.0731 13.622C24.9935 13.8325 24.9542 14.056 24.9571 14.281L27.5541 16.741L33.7341 18.718L48.4401 21.353L65.2571 24.24L65.4321 22.787C65.3741 22.787 65.3351 22.767 65.2771 22.767L63.0681 22.419L62.6231 21.624C60.3361 17.594 57.8181 12.595 56.3451 9.224C55.2031 6.608 54.1171 3.586 53.5171 1.416C53.1871 0.098 53.1491 0.02 52.9351 0V0.001ZM52.6251 0.989H52.6451C52.6641 1.009 52.7411 1.552 52.8191 2.191C53.1491 4.903 53.7491 7.519 54.6991 10.348C55.4151 12.478 55.4151 12.363 54.5821 12.111C52.6061 11.569 43.7521 10.038 37.3381 9.146C36.3111 9.011 35.4391 8.876 35.4391 8.856C35.3621 8.778 40.0691 6.318 42.1431 5.349C44.7971 4.129 52.0831 1.086 52.6251 0.989ZM33.9471 9.67L34.7031 9.922C38.8111 11.317 49.1371 13.294 54.8341 13.759C55.4731 13.817 56.0161 13.875 56.0341 13.875C56.0541 13.895 55.5121 14.185 54.8141 14.514C52.0631 15.89 49.0401 17.576 46.9481 18.874C46.3281 19.261 45.7661 19.572 45.6881 19.572C45.6111 19.572 45.2041 19.494 44.7781 19.435L44.0031 19.319L42.0651 17.42C39.7091 15.1255 37.339 12.8454 34.9551 10.58L33.9471 9.67ZM33.1721 10.271L35.9041 13.681C37.3961 15.561 38.9081 17.401 39.2371 17.808C39.5661 18.215 39.8371 18.544 39.8171 18.564C39.7401 18.622 35.8651 17.866 33.8121 17.402C31.7001 16.917 30.8281 16.684 29.5301 16.277L28.4641 15.928V15.658C28.4841 14.358 30.1311 12.421 32.9201 10.446L33.1721 10.271ZM56.3841 14.921C56.4611 14.921 56.5581 15.095 56.7901 15.618C57.4501 17.071 59.5031 20.985 60.0071 21.741C60.1621 21.993 60.4331 22.013 57.7011 21.567C51.1331 20.501 49.0211 20.152 49.0211 20.114C49.0211 20.094 49.2151 19.959 49.4671 19.823C51.5021 18.699 53.5551 17.266 55.3771 15.735C55.8221 15.367 56.2291 15.018 56.3071 14.96C56.3261 14.921 56.3641 14.902 56.3841 14.921Z" fill="url(#paint1_linear_418_178)"/>
<path d="M25.209 13.3501C25.209 13.3501 24.783 14.0291 25.189 15.0371C25.441 15.6571 26.177 16.4121 27.011 17.1871C27.011 17.1871 35.632 25.5961 36.679 26.7971C41.445 32.3001 43.519 37.7251 43.712 45.2041C43.829 50.0091 42.918 54.2331 40.651 59.1351C36.621 67.9311 28.115 77.6391 14.998 88.4111L16.916 87.7711C18.156 86.8411 19.842 85.8541 23.795 83.6841C32.92 78.6841 43.189 74.0931 55.783 69.3641C73.918 62.5441 103.737 54.5621 120.709 51.9661L122.473 51.6951L122.201 51.2681C120.651 48.8651 119.585 47.3741 118.306 45.7851C114.586 41.1741 110.073 37.4351 104.55 34.3351C96.955 30.0911 87.132 26.7781 74.693 24.3181C72.348 23.8521 67.194 22.9611 63.009 22.3221C56.0241 21.2474 49.0488 20.1107 42.084 18.9121C39.817 18.5241 36.426 17.9431 34.179 17.4581C33.016 17.2061 30.789 16.6831 29.045 16.0831C27.65 15.5401 25.635 14.9981 25.208 13.3511L25.209 13.3501ZM30.208 18.1941C30.227 18.1761 30.537 18.2921 30.944 18.4271C31.8722 18.7389 32.8092 19.0233 33.754 19.2801C34.6043 19.514 35.4566 19.74 36.311 19.9581C37.473 20.2481 38.442 20.5191 38.461 20.5191C38.597 20.6551 40.554 26.9131 41.213 29.3161C41.465 30.2261 41.659 31.0011 41.64 31.0011C41.62 31.0211 41.407 30.6911 41.155 30.2461C38.888 26.2551 35.304 22.2061 31.157 18.9501C30.615 18.5631 30.208 18.2141 30.208 18.1941ZM39.74 20.8301C39.838 20.8301 40.264 20.8881 40.787 21.0041C44.08 21.7401 49.99 22.8641 53.767 23.5041C54.407 23.6011 54.911 23.7171 54.911 23.7551C54.911 23.7951 54.679 23.9301 54.388 24.0851C53.748 24.4141 51.172 25.9451 50.319 26.5251C48.169 27.9601 46.231 29.5101 44.836 30.9051C44.274 31.4671 43.79 31.9321 43.79 31.9321C43.79 31.9321 43.674 31.6021 43.576 31.1961C42.879 28.5021 41.426 24.5111 40.108 21.7011C39.895 21.2561 39.721 20.8491 39.721 20.8111C39.721 20.8491 39.72 20.8301 39.74 20.8301ZM56.52 24.0261C56.636 24.0661 56.83 24.7241 57.217 26.1771C57.9439 29.0765 58.257 32.064 58.147 35.0511C58.108 35.8651 58.069 36.6211 58.03 36.7181L57.972 36.9111L56.965 36.5811C54.892 35.9231 51.521 34.9351 48.634 34.1211C46.987 33.6751 45.65 33.2691 45.65 33.2311C45.65 33.1141 48.053 30.7111 49.08 29.8011C51.036 28.0761 56.345 23.9691 56.52 24.0261ZM57.856 24.2201C57.914 24.1621 65.878 25.5371 69.501 26.2351C72.195 26.7581 76.108 27.5721 76.341 27.6691C76.456 27.7081 76.05 27.9391 74.751 28.5221C69.636 30.8271 65.839 32.9001 62.061 35.4191C61.073 36.0781 60.239 36.6211 60.221 36.6211C60.201 36.6211 60.181 36.0591 60.181 35.3811C60.181 31.7001 59.446 27.9791 58.089 24.8411C57.953 24.5311 57.837 24.2401 57.856 24.2211V24.2201ZM78.452 28.2901C78.51 28.3471 78.259 29.9171 78.026 30.8471C77.328 33.7341 75.449 38.0161 73.144 42.0461C72.736 42.7631 72.368 43.3441 72.329 43.3631C72.291 43.3831 71.769 43.0921 71.167 42.7431C68.92 41.4251 66.362 40.1861 63.572 39.0231C62.797 38.6931 62.119 38.4231 62.1 38.3831C61.964 38.2681 68.203 34.1411 71.496 32.1641C74.113 30.5751 78.376 28.2121 78.452 28.2891V28.2901ZM79.925 28.5221C80.099 28.5221 83.625 29.4901 85.466 30.0331C90.019 31.3891 95.251 33.3071 98.661 34.8571L100.075 35.4971L99.087 35.7291C90.757 37.6471 83.626 39.8571 76.747 42.6461C76.185 42.8791 75.681 43.0731 75.643 43.0731C75.605 43.0731 75.798 42.6271 76.05 42.0851C78.123 37.6861 79.46 33.0951 79.79 29.1801C79.809 28.8121 79.867 28.5221 79.925 28.5221ZM44.817 36.5821C44.875 36.5241 47.567 37.1631 49.021 37.5701C51.231 38.1901 55.919 39.7601 55.919 39.8751C55.919 39.8951 55.396 40.3411 54.776 40.8831C52.238 42.9951 49.796 45.2231 46.87 48.0521C45.999 48.8851 45.263 49.5631 45.224 49.5631C45.184 49.5631 45.166 49.4471 45.184 49.2921C45.63 46.0371 45.534 41.8521 44.914 37.6091C44.855 37.0661 44.798 36.6011 44.817 36.5821ZM101.412 36.6401C101.45 36.6791 100.172 38.6931 99.358 39.8361C98.196 41.5031 96.49 43.7121 92.635 48.5561C90.9363 50.6884 89.2443 52.8261 87.559 54.9691C86.784 55.9381 86.145 56.7511 86.124 56.7511C86.106 56.7511 85.854 56.4031 85.582 55.9771C83.412 52.7211 80.816 49.8731 77.735 47.3161C77.2654 46.9187 76.7876 46.5309 76.302 46.1531C76.088 45.9981 75.914 45.8431 75.914 45.8231C75.914 45.7661 79.207 44.3511 81.707 43.3441C86.087 41.5611 92.053 39.4301 96.53 38.0541C98.874 37.3181 101.373 36.6011 101.412 36.6401ZM102.904 37.0271C102.981 37.0081 103.447 37.2411 104.008 37.5701C108.717 40.2631 113.328 43.7321 116.97 47.2961C117.997 48.3041 120.536 50.9391 120.497 50.9581C120.497 50.9581 119.605 51.0361 118.559 51.1131C110.402 51.7331 99.959 53.4571 89.923 55.8791C89.244 56.0341 88.643 56.1691 88.605 56.1691C88.567 56.1691 89.322 55.4141 90.272 54.5041C96.162 48.8271 98.855 45.2431 102.032 38.8481C102.478 37.9001 102.865 37.0851 102.904 37.0271C102.884 37.0271 102.884 37.0271 102.904 37.0271ZM59.755 41.4451C60.026 41.5031 62.545 42.6851 64.444 43.6351C66.188 44.5061 68.804 45.9011 68.939 46.0181C68.959 46.0371 68.029 46.5211 66.885 47.0841C63.4696 48.7821 60.1276 50.6241 56.868 52.6051C55.938 53.1671 55.163 53.6321 55.144 53.6321C55.066 53.6321 55.086 53.5541 55.609 52.6051C57.353 49.4281 58.748 45.6301 59.542 41.9291C59.619 41.6391 59.697 41.4451 59.755 41.4451ZM57.236 41.9101C57.294 41.9681 56.636 44.3511 56.229 45.6501C55.434 48.1101 54.097 51.1901 52.799 53.5161C52.489 54.0581 52.024 54.8531 51.772 55.2981L51.288 56.0731L50.203 55.0271C48.943 53.8071 47.917 53.0511 46.6 52.3721C46.076 52.1021 45.669 51.8691 45.669 51.8301C45.669 51.6751 48.983 48.6721 51.521 46.5021C53.341 44.9321 57.178 41.8521 57.236 41.9101ZM72.64 48.2461L73.59 48.8661C75.76 50.2811 78.317 52.1601 80.274 53.8061C81.378 54.7161 83.509 56.6361 83.936 57.1001L84.168 57.3521L82.598 57.7981C73.725 60.2581 66.866 62.4481 58.864 65.3931C57.972 65.7231 57.217 65.9931 57.159 65.9931C57.043 65.9931 56.946 66.0901 58.942 64.2491C64.057 59.5421 68.59 54.3491 71.962 49.2921L72.64 48.2461ZM68.59 49.2531C68.63 49.2921 65.975 53.0311 64.386 55.1431C62.487 57.6621 59.116 61.8861 56.79 64.6371C55.822 65.7811 54.99 66.7301 54.95 66.7491C54.892 66.7691 54.872 66.4791 54.872 66.0321C54.872 63.6881 54.272 61.1881 53.226 59.0571C52.78 58.1661 52.702 57.9531 52.8 57.8561C53.168 57.5261 58.806 54.3101 62.37 52.3921C64.774 51.1131 68.532 49.2151 68.59 49.2531ZM44.1 55.2601C44.158 55.2601 44.603 55.4921 45.108 55.7631C46.2871 56.4057 47.4027 57.1584 48.44 58.0111C48.479 58.0491 47.975 58.4571 47.316 58.9411C45.476 60.2581 42.686 62.3711 41.058 63.6691C39.353 65.0251 39.295 65.0631 39.488 64.7731C40.768 62.8161 41.407 61.7121 42.085 60.2971C42.7088 58.9812 43.2521 57.6288 43.712 56.2471C43.867 55.6871 44.061 55.2601 44.1 55.2601ZM50.63 60.3741C50.726 60.3561 50.843 60.5301 51.365 61.3051C52.469 62.9521 53.322 65.1611 53.535 66.9431L53.575 67.3301L50.92 68.3581C46.173 70.1981 41.794 72.0191 38.83 73.3761C37.7471 73.8838 36.6684 74.4005 35.594 74.9261C34.644 75.4101 33.87 75.7781 33.87 75.7591C33.87 75.7401 34.47 75.2941 35.206 74.7511C41 70.5471 46.018 65.9351 49.777 61.3241C50.184 60.8401 50.552 60.3941 50.59 60.3751L50.63 60.3741ZM47.626 61.1111C47.704 61.1881 45.495 63.6881 43.984 65.2191C40.244 69.0351 36.544 72.0191 31.952 74.9251C31.37 75.2931 30.847 75.6231 30.789 75.6611C30.654 75.7391 30.827 75.5451 32.843 73.3561C34.0247 72.0877 35.1433 70.7621 36.195 69.3841C36.931 68.4341 37.066 68.2991 38.132 67.5441C40.981 65.4891 47.549 61.0341 47.626 61.1111Z" fill="url(#paint2_radial_418_178)"/>
<defs>
<linearGradient id="paint0_linear_418_178" x1="24.8285" y1="115.343" x2="34.0931" y2="109.869" gradientUnits="userSpaceOnUse">
<stop stop-color="#909CA9"/>
<stop offset="1" stop-color="#EDEDEE"/>
</linearGradient>
<linearGradient id="paint1_linear_418_178" x1="25.0407" y1="12.1383" x2="32.4952" y2="12.1383" gradientUnits="userSpaceOnUse">
<stop stop-color="#939FAB"/>
<stop offset="1" stop-color="#DCDEE1"/>
</linearGradient>
<radialGradient id="paint2_radial_418_178" cx="0" cy="0" r="1" gradientTransform="matrix(-9.51109 -1.43699 -2.88296 19.0222 62.7394 46.4598)" gradientUnits="userSpaceOnUse">
<stop stop-color="#EE352C"/>
<stop offset="1" stop-color="#A91D22"/>
</radialGradient>
</defs>
</svg>
