<svg width="128" height="128" viewBox="0 0 128 128" fill="none" xmlns="http://www.w3.org/2000/svg">
<path d="M101.6 26.1868C96.7097 21.2487 90.8855 17.3333 84.4667 14.6687C78.048 12.0042 71.1631 10.6438 64.2133 10.6668C35.0933 10.6668 11.36 34.4001 11.36 63.5201C11.36 72.8535 13.8133 81.9201 18.4 89.9201L10.9333 117.333L38.9333 109.973C46.6667 114.187 55.36 116.427 64.2133 116.427C93.3333 116.427 117.067 92.6935 117.067 63.5735C117.067 49.4401 111.573 36.1601 101.6 26.1868ZM64.2133 107.467C56.32 107.467 48.5867 105.333 41.8133 101.333L40.2133 100.373L23.5733 104.747L28 88.5335L26.9333 86.8801C22.5469 79.8778 20.2183 71.7829 20.2133 63.5201C20.2133 39.3068 39.9467 19.5735 64.16 19.5735C75.8933 19.5735 86.9333 24.1601 95.2 32.4801C99.294 36.5541 102.538 41.4004 104.745 46.7379C106.951 52.0754 108.076 57.7979 108.053 63.5735C108.16 87.7868 88.4267 107.467 64.2133 107.467ZM88.32 74.6135C86.9867 73.9735 80.48 70.7735 79.3067 70.2935C78.08 69.8668 77.2267 69.6535 76.32 70.9335C75.4133 72.2668 72.9067 75.2535 72.16 76.1068C71.4133 77.0135 70.6133 77.1201 69.28 76.4268C67.9467 75.7868 63.68 74.3468 58.6667 69.8668C54.72 66.3468 52.1067 62.0268 51.3067 60.6935C50.56 59.3601 51.2 58.6668 51.8933 57.9735C52.48 57.3868 53.2267 56.4268 53.8667 55.6801C54.5067 54.9335 54.7733 54.3468 55.2 53.4935C55.6267 52.5868 55.4133 51.8401 55.0933 51.2001C54.7733 50.5601 52.1067 44.0535 51.04 41.3868C49.9733 38.8268 48.8533 39.1468 48.0533 39.0935H45.4933C44.5867 39.0935 43.2 39.4135 41.9733 40.7468C40.8 42.0801 37.3867 45.2801 37.3867 51.7868C37.3867 58.2935 42.1333 64.5868 42.7733 65.4401C43.4133 66.3468 52.1067 79.6801 65.3333 85.3868C68.48 86.7735 70.9333 87.5735 72.8533 88.1601C76 89.1735 78.88 89.0135 81.1733 88.6935C83.7333 88.3201 89.0133 85.4935 90.08 82.4001C91.2 79.3068 91.2 76.6935 90.8267 76.1068C90.4533 75.5201 89.6533 75.2535 88.32 74.6135Z" fill="#FF3F7F"/>
</svg>
