<svg width="128" height="128" viewBox="0 0 128 128" fill="none" xmlns="http://www.w3.org/2000/svg">
<path fill-rule="evenodd" clip-rule="evenodd" d="M63.8172 0.640002C51.7486 0.640002 39.8263 3.47429 28.7817 8.93257C27.2172 9.77506 26.0408 11.192 25.5004 12.8849C24.96 14.5777 25.0979 16.4142 25.885 18.0073C26.6721 19.6005 28.0469 20.8259 29.7198 21.4253C31.3926 22.0247 33.2328 21.9513 34.8526 21.2206C43.8453 16.7191 53.7608 14.3686 63.8172 14.3543C73.728 14.3543 83.5658 16.6766 92.7818 21.2297C93.5924 21.6663 94.4827 21.9351 95.3995 22.0201C96.3163 22.1051 97.2409 22.0046 98.118 21.7247C98.9951 21.4447 99.8069 20.9909 100.505 20.3904C101.203 19.7899 101.773 19.055 102.181 18.2295C102.588 17.4041 102.826 16.5049 102.879 15.5857C102.931 14.6664 102.799 13.746 102.488 12.8792C102.177 12.0124 101.696 11.2171 101.071 10.5406C100.446 9.86412 99.6919 9.32034 98.8526 8.94172C87.9742 3.49867 75.9813 0.653794 63.8172 0.630859V0.640002ZM82.9989 25.7646C76.9974 23.1837 70.533 21.8527 64 21.8527C57.4671 21.8527 51.0027 23.1837 45.0012 25.7646C43.3665 26.5016 42.0855 27.8497 41.4328 29.52C40.7802 31.1902 40.8078 33.0496 41.5097 34.6997C42.2116 36.3499 43.5319 37.6594 45.1878 38.3476C46.8437 39.0359 48.7033 39.0481 50.368 38.3817C54.6723 36.5225 59.3114 35.5634 64 35.5634C68.6887 35.5634 73.3278 36.5225 77.632 38.3817C78.4642 38.7569 79.3629 38.9622 80.2755 38.9855C81.188 39.0088 82.096 38.8497 82.9463 38.5174C83.7965 38.1852 84.5719 37.6865 85.2268 37.0507C85.8818 36.4149 86.4032 35.6547 86.7606 34.8146C87.1179 33.9746 87.3039 33.0717 87.3076 32.1589C87.3114 31.2461 87.1329 30.3417 86.7825 29.4987C86.4321 28.6558 85.917 27.8913 85.2673 27.2501C84.6176 26.6089 83.8464 26.1038 82.9989 25.7646Z" fill="#2859C5"/>
<path fill-rule="evenodd" clip-rule="evenodd" d="M70.8845 48.7864C63.4364 47.89 55.8996 49.4545 49.4237 53.2414C42.9477 57.0282 37.8883 62.8294 35.0171 69.7601C27.5346 70.7393 20.7232 74.5815 16.0149 80.4788C11.3066 86.3762 9.06824 93.8693 9.77034 101.383C10.4724 108.896 14.0603 115.845 19.7797 120.768C25.4991 125.691 32.9044 128.205 40.4388 127.781H93.0834C99.167 127.734 105.035 125.521 109.636 121.541C114.236 117.56 117.269 112.071 118.19 106.057C119.111 100.043 117.86 93.8982 114.662 88.7229C111.464 83.5477 106.527 79.6807 100.736 77.815C99.6212 70.3785 96.0989 63.5127 90.7088 58.2696C85.3187 53.0264 78.3581 49.6952 70.8937 48.7864H70.8845Z" fill="#8FBFFA"/>
</svg>
