<svg width="259" height="35" viewBox="0 0 259 35" fill="none" xmlns="http://www.w3.org/2000/svg">
<path d="M17.1201 10.4C17.1201 11.7013 16.8214 12.896 16.2241 13.984C15.6268 15.0507 14.7094 15.9147 13.4721 16.576C12.2348 17.2373 10.6988 17.568 8.86411 17.568H5.47211V25.632H0.000113368V3.168H8.86411C10.6561 3.168 12.1708 3.47734 13.4081 4.096C14.6454 4.71467 15.5734 5.568 16.1921 6.656C16.8108 7.744 17.1201 8.992 17.1201 10.4ZM8.44811 13.216C9.49345 13.216 10.2721 12.9707 10.7841 12.48C11.2961 11.9893 11.5521 11.296 11.5521 10.4C11.5521 9.504 11.2961 8.81067 10.7841 8.32C10.2721 7.82934 9.49345 7.584 8.44811 7.584H5.47211V13.216H8.44811ZM25.4409 10.752C26.0809 9.77067 26.8809 9.00267 27.8409 8.448C28.8009 7.872 29.8675 7.584 31.0409 7.584V13.376H29.5369C28.1715 13.376 27.1475 13.6747 26.4649 14.272C25.7822 14.848 25.4409 15.872 25.4409 17.344V25.632H19.9689V7.776H25.4409V10.752ZM36.4084 5.92C35.4484 5.92 34.659 5.64267 34.0404 5.088C33.443 4.512 33.1444 3.808 33.1444 2.976C33.1444 2.12267 33.443 1.41867 34.0404 0.864002C34.659 0.288002 35.4484 1.90735e-06 36.4084 1.90735e-06C37.347 1.90735e-06 38.115 0.288002 38.7124 0.864002C39.331 1.41867 39.6404 2.12267 39.6404 2.976C39.6404 3.808 39.331 4.512 38.7124 5.088C38.115 5.64267 37.347 5.92 36.4084 5.92ZM39.1284 7.776V25.632H33.6564V7.776H39.1284ZM65.8779 7.584C68.0965 7.584 69.8565 8.256 71.1579 9.6C72.4805 10.944 73.1419 12.8107 73.1419 15.2V25.632H67.7019V15.936C67.7019 14.784 67.3925 13.8987 66.7739 13.28C66.1765 12.64 65.3445 12.32 64.2779 12.32C63.2112 12.32 62.3685 12.64 61.7499 13.28C61.1525 13.8987 60.8539 14.784 60.8539 15.936V25.632H55.4139V15.936C55.4139 14.784 55.1045 13.8987 54.4859 13.28C53.8885 12.64 53.0565 12.32 51.9899 12.32C50.9232 12.32 50.0805 12.64 49.4619 13.28C48.8645 13.8987 48.5659 14.784 48.5659 15.936V25.632H43.0939V7.776H48.5659V10.016C49.1205 9.26934 49.8459 8.68267 50.7419 8.256C51.6379 7.808 52.6512 7.584 53.7819 7.584C55.1259 7.584 56.3205 7.872 57.3659 8.448C58.4325 9.024 59.2645 9.84534 59.8619 10.912C60.4805 9.93067 61.3232 9.13067 62.3899 8.512C63.4565 7.89334 64.6192 7.584 65.8779 7.584ZM75.8809 16.672C75.8809 14.8373 76.2222 13.2267 76.9049 11.84C77.6089 10.4533 78.5582 9.38667 79.7529 8.64C80.9475 7.89334 82.2809 7.52 83.7529 7.52C85.0115 7.52 86.1102 7.776 87.0489 8.288C88.0089 8.8 88.7449 9.472 89.2569 10.304V7.776H94.7289V25.632H89.2569V23.104C88.7235 23.936 87.9769 24.608 87.0169 25.12C86.0782 25.632 84.9795 25.888 83.7209 25.888C82.2702 25.888 80.9475 25.5147 79.7529 24.768C78.5582 24 77.6089 22.9227 76.9049 21.536C76.2222 20.128 75.8809 18.5067 75.8809 16.672ZM89.2569 16.704C89.2569 15.3387 88.8729 14.2613 88.1049 13.472C87.3582 12.6827 86.4409 12.288 85.3529 12.288C84.2649 12.288 83.3369 12.6827 82.5689 13.472C81.8222 14.24 81.4489 15.3067 81.4489 16.672C81.4489 18.0373 81.8222 19.1253 82.5689 19.936C83.3369 20.7253 84.2649 21.12 85.3529 21.12C86.4409 21.12 87.3582 20.7253 88.1049 19.936C88.8729 19.1467 89.2569 18.0693 89.2569 16.704ZM104.16 10.304C104.693 9.472 105.429 8.8 106.368 8.288C107.306 7.776 108.405 7.52 109.664 7.52C111.136 7.52 112.469 7.89334 113.664 8.64C114.858 9.38667 115.797 10.4533 116.48 11.84C117.184 13.2267 117.536 14.8373 117.536 16.672C117.536 18.5067 117.184 20.128 116.48 21.536C115.797 22.9227 114.858 24 113.664 24.768C112.469 25.5147 111.136 25.888 109.664 25.888C108.426 25.888 107.328 25.632 106.368 25.12C105.429 24.608 104.693 23.9467 104.16 23.136V34.144H98.6876V7.776H104.16V10.304ZM111.968 16.672C111.968 15.3067 111.584 14.24 110.816 13.472C110.069 12.6827 109.141 12.288 108.032 12.288C106.944 12.288 106.016 12.6827 105.248 13.472C104.501 14.2613 104.128 15.3387 104.128 16.704C104.128 18.0693 104.501 19.1467 105.248 19.936C106.016 20.7253 106.944 21.12 108.032 21.12C109.12 21.12 110.048 20.7253 110.816 19.936C111.584 19.1253 111.968 18.0373 111.968 16.672ZM138.038 7.776V25.632H132.566V23.2C132.012 23.9893 131.254 24.6293 130.294 25.12C129.356 25.5893 128.31 25.824 127.158 25.824C125.793 25.824 124.588 25.5253 123.542 24.928C122.497 24.3093 121.686 23.424 121.11 22.272C120.534 21.12 120.246 19.7653 120.246 18.208V7.776H125.686V17.472C125.686 18.6667 125.996 19.5947 126.614 20.256C127.233 20.9173 128.065 21.248 129.11 21.248C130.177 21.248 131.02 20.9173 131.638 20.256C132.257 19.5947 132.566 18.6667 132.566 17.472V7.776H138.038ZM151.921 20.992V25.632H149.137C147.153 25.632 145.606 25.152 144.497 24.192C143.388 23.2107 142.833 21.6213 142.833 19.424V12.32H140.657V7.776H142.833V3.424H148.305V7.776H151.889V12.32H148.305V19.488C148.305 20.0213 148.433 20.4053 148.689 20.64C148.945 20.8747 149.372 20.992 149.969 20.992H151.921ZM160.441 10.752C161.081 9.77067 161.881 9.00267 162.841 8.448C163.801 7.872 164.868 7.584 166.041 7.584V13.376H164.537C163.172 13.376 162.148 13.6747 161.465 14.272C160.782 14.848 160.441 15.872 160.441 17.344V25.632H154.969V7.776H160.441V10.752ZM167.568 16.672C167.568 14.8373 167.91 13.2267 168.592 11.84C169.296 10.4533 170.246 9.38667 171.44 8.64C172.635 7.89334 173.968 7.52 175.44 7.52C176.699 7.52 177.798 7.776 178.736 8.288C179.696 8.8 180.432 9.472 180.944 10.304V7.776H186.416V25.632H180.944V23.104C180.411 23.936 179.664 24.608 178.704 25.12C177.766 25.632 176.667 25.888 175.408 25.888C173.958 25.888 172.635 25.5147 171.44 24.768C170.246 24 169.296 22.9227 168.592 21.536C167.91 20.128 167.568 18.5067 167.568 16.672ZM180.944 16.704C180.944 15.3387 180.56 14.2613 179.792 13.472C179.046 12.6827 178.128 12.288 177.04 12.288C175.952 12.288 175.024 12.6827 174.256 13.472C173.51 14.24 173.136 15.3067 173.136 16.672C173.136 18.0373 173.51 19.1253 174.256 19.936C175.024 20.7253 175.952 21.12 177.04 21.12C178.128 21.12 179.046 20.7253 179.792 19.936C180.56 19.1467 180.944 18.0693 180.944 16.704Z" fill="#FCF8F8"/>
<path d="M192.935 25.888C191.975 25.888 191.186 25.6107 190.567 25.056C189.97 24.48 189.671 23.776 189.671 22.944C189.671 22.0907 189.97 21.376 190.567 20.8C191.186 20.224 191.975 19.936 192.935 19.936C193.874 19.936 194.642 20.224 195.239 20.8C195.858 21.376 196.167 22.0907 196.167 22.944C196.167 23.776 195.858 24.48 195.239 25.056C194.642 25.6107 193.874 25.888 192.935 25.888ZM198.318 16.672C198.318 14.8373 198.66 13.2267 199.342 11.84C200.046 10.4533 200.996 9.38667 202.19 8.64C203.385 7.89334 204.718 7.52 206.19 7.52C207.364 7.52 208.43 7.76534 209.39 8.256C210.372 8.74667 211.14 9.408 211.694 10.24V1.952H217.166V25.632H211.694V23.072C211.182 23.9253 210.446 24.608 209.486 25.12C208.548 25.632 207.449 25.888 206.19 25.888C204.718 25.888 203.385 25.5147 202.19 24.768C200.996 24 200.046 22.9227 199.342 21.536C198.66 20.128 198.318 18.5067 198.318 16.672ZM211.694 16.704C211.694 15.3387 211.31 14.2613 210.542 13.472C209.796 12.6827 208.878 12.288 207.79 12.288C206.702 12.288 205.774 12.6827 205.006 13.472C204.26 14.24 203.886 15.3067 203.886 16.672C203.886 18.0373 204.26 19.1253 205.006 19.936C205.774 20.7253 206.702 21.12 207.79 21.12C208.878 21.12 209.796 20.7253 210.542 19.936C211.31 19.1467 211.694 18.0693 211.694 16.704ZM237.957 16.416C237.957 16.928 237.925 17.4613 237.861 18.016H225.477C225.562 19.1253 225.914 19.9787 226.533 20.576C227.173 21.152 227.952 21.44 228.869 21.44C230.234 21.44 231.184 20.864 231.717 19.712H237.541C237.242 20.8853 236.698 21.9413 235.909 22.88C235.141 23.8187 234.17 24.5547 232.997 25.088C231.824 25.6213 230.512 25.888 229.061 25.888C227.312 25.888 225.754 25.5147 224.389 24.768C223.024 24.0213 221.957 22.9547 221.189 21.568C220.421 20.1813 220.037 18.56 220.037 16.704C220.037 14.848 220.41 13.2267 221.157 11.84C221.925 10.4533 222.992 9.38667 224.357 8.64C225.722 7.89334 227.29 7.52 229.061 7.52C230.789 7.52 232.325 7.88267 233.669 8.608C235.013 9.33334 236.058 10.368 236.805 11.712C237.573 13.056 237.957 14.624 237.957 16.416ZM232.357 14.976C232.357 14.0373 232.037 13.2907 231.397 12.736C230.757 12.1813 229.957 11.904 228.997 11.904C228.08 11.904 227.301 12.1707 226.661 12.704C226.042 13.2373 225.658 13.9947 225.509 14.976H232.357ZM248.876 20.512L252.748 7.776H258.572L252.236 25.632H245.484L239.148 7.776H245.004L248.876 20.512Z" fill="#FF3F7F"/>
</svg>
