<svg id="Layer_1" data-name="Layer 1" xmlns="http://www.w3.org/2000/svg" xmlns:xlink="http://www.w3.org/1999/xlink"
    viewBox="0 0 1126.8 1234.44">
    <defs>
        <style>
            .cls-1 {
                fill: url(#linear-gradient);
            }

            .cls-2 {
                fill: url(#linear-gradient-2);
            }
        </style>
        <linearGradient id="linear-gradient" x1="140.35" y1="353.76" x2="230.41" y2="1.44"
            gradientUnits="userSpaceOnUse">
            <stop offset="0" stop-color="#7e0830" />
            <stop offset="0.49" stop-color="#940f3a" />
            <stop offset="1" stop-color="#aa1645" />
        </linearGradient>
        <linearGradient id="linear-gradient-2" x1="843.89" y1="480.06" x2="1196.1" y2="1550.42"
            gradientUnits="userSpaceOnUse">
            <stop offset="0.22" stop-color="#ef7022" />
            <stop offset="1" stop-color="#ee492d" />
        </linearGradient>
    </defs>
    <circle class="cls-1" cx="183.79" cy="183.79" r="183.79" />
    <path class="cls-2"
        d="M803.6,1617.22a367,367,0,0,1-30.27-732.79A300,300,0,0,0,1047.8,615a258.41,258.41,0,1,1,357.76,264.33,260.32,260.32,0,0,1-26,9.4,300,300,0,0,0-211.26,320.18,376.45,376.45,0,0,1,2.26,41.29,366.7,366.7,0,0,1-367,367Z"
        transform="translate(-436.6 -382.78)" />
</svg>